<?xml version="1.0" encoding="iso-8859-1"?>
<!-- Uploaded to: SVG Repo, www.svgrepo.com, Generator: SVG Repo Mixer Tools -->
<!DOCTYPE svg PUBLIC "-//W3C//DTD SVG 1.1//EN" "http://www.w3.org/Graphics/SVG/1.1/DTD/svg11.dtd">
<svg fill="#000000" version="1.1" id="Capa_1" xmlns="http://www.w3.org/2000/svg" xmlns:xlink="http://www.w3.org/1999/xlink" 
	 width="800px" height="800px" viewBox="0 0 197.968 197.968"
	 xml:space="preserve">
<g>
	<g>
		<ellipse cx="98.962" cy="24.643" rx="16.021" ry="15.81"/>
		<path d="M146.92,22.246L126.258,1.673c-2.231-2.229-5.849-2.231-8.079,0s-2.23,5.849-0.001,8.078l15.828,15.787
			c0.142,0.14,0.22,0.33,0.22,0.527s-0.078,0.388-0.219,0.527l-16.175,16.161H80.086L63.911,26.592
			c-0.141-0.14-0.219-0.33-0.219-0.526c0-0.197,0.078-0.389,0.219-0.527L79.709,9.747c2.23-2.229,2.23-5.844,0-8.075
			c-2.23-2.229-5.849-2.229-8.079,0.001L51.267,22.039c-1.072,1.071-1.674,2.525-1.674,4.04s0.602,2.968,1.674,4.04L79.69,58.554
			v130.846c0,4.732,3.829,8.568,8.562,8.568c4.731,0,8.561-3.836,8.561-8.568v-64.722h4.295v64.722c0,4.732,3.828,8.568,8.562,8.568
			c4.73,0,8.561-3.836,8.561-8.568V58.554l28.213-28.193C148.674,28.129,149.152,24.478,146.92,22.246z"/>
	</g>
</g>
</svg>