<svg width="500" height="372.1" viewBox="0 0 500 372.1" xmlns="http://www.w3.org/2000/svg" xmlns:xlink="http://www.w3.org/1999/xlink" xml:space="preserve" overflow="hidden"><defs></defs><rect x="416.8" y="343.5" width="33.1" height="0.3" fill="#EBEBEB"/><rect x="322.5" y="346.3" width="8.7" height="0.3" fill="#EBEBEB"/><rect x="396.6" y="334.3" width="19.2" height="0.3" fill="#EBEBEB"/><rect x="52.5" y="335.9" width="43.2" height="0.3" fill="#EBEBEB"/><rect x="104.6" y="335.9" width="6.3" height="0.3" fill="#EBEBEB"/><rect x="131.5" y="340.2" width="93.7" height="0.3" fill="#EBEBEB"/><path d="M237 282.8 43.9 282.8C40.8 282.8 38.2 280.2 38.2 277.1L38.2 5.7C38.2 2.6 40.8 0 43.9 0L237 0C240.1 0 242.7 2.6 242.7 5.7L242.7 277.1C242.7 280.3 240.2 282.8 237 282.8ZM43.9 0.3C40.9 0.3 38.4 2.7 38.4 5.8L38.4 277.2C38.4 280.2 40.8 282.7 43.9 282.7L237 282.7C240 282.7 242.5 280.3 242.5 277.2L242.5 5.7C242.5 2.7 240.1 0.2 237 0.2L43.9 0.2Z" fill="#EBEBEB"/><path d="M453.3 282.8 260.2 282.8C257.1 282.8 254.5 280.2 254.5 277.1L254.5 5.7C254.5 2.6 257.1 0 260.2 0L453.3 0C456.4 0 459 2.6 459 5.7L459 277.1C459 280.3 456.5 282.8 453.3 282.8ZM260.2 0.3C257.2 0.3 254.7 2.7 254.7 5.8L254.7 277.2C254.7 280.2 257.1 282.7 260.2 282.7L453.3 282.7C456.3 282.7 458.8 280.3 458.8 277.2L458.8 5.7C458.8 2.7 456.4 0.2 453.3 0.2L260.2 0.2Z" fill="#EBEBEB"/><rect x="0" y="327.4" width="500" height="0.3" fill="#EBEBEB"/><g><g><path d="M249.6 26.3C239.7 20 229.7 13.7 219.8 7.5 219.2 7 218 7.3 218 7.9 218 13.6 218 19.4 218 25.1 208.7 19.2 199.4 13.3 190 7.4 189.3 7 188.1 7.3 188.1 7.9 188.1 13.6 188.1 19.4 188.1 25.1 178.8 19.2 169.5 13.3 160.1 7.4 159.4 7 158.2 7.3 158.2 7.9 158.2 13.6 158.2 19.4 158.2 25.1 148.9 19.2 139.6 13.3 130.2 7.4 129.5 7 128.3 7.3 128.3 7.9 128.3 13.6 128.3 19.4 128.3 25.1 119 19.2 109.7 13.3 100.3 7.4 99.6 7 98.4 7.3 98.4 7.9 98.4 13.6 98.4 19.4 98.4 25.1 89.1 19.2 79.8 13.3 70.4 7.4 69.7 7 68.5 7.3 68.5 7.9 68.5 13.6 68.5 19.4 68.5 25.1 59.2 19.2 49.9 13.3 40.5 7.4 39.5 6.8 38 7.7 39 8.4 48.9 14.7 58.9 21 68.8 27.2 68.8 27.2 68.8 27.2 68.8 27.2 68.8 27.2 68.8 27.2 68.8 27.2 69.2 27.4 69.6 27.4 70 27.3 70.4 27.2 70.6 27 70.7 26.7 70.7 26.7 70.7 26.7 70.7 26.7 70.7 26.7 70.7 26.7 70.7 26.7 70.7 21 70.7 15.2 70.7 9.5 80 15.4 89.3 21.3 98.7 27.2 98.7 27.2 98.7 27.2 98.7 27.2 98.7 27.2 98.7 27.2 98.7 27.2 99.1 27.4 99.5 27.4 99.9 27.3 100.3 27.2 100.5 27 100.6 26.7 100.6 26.7 100.6 26.7 100.6 26.7 100.6 26.7 100.6 26.7 100.6 26.7 100.6 21 100.6 15.2 100.6 9.5 109.9 15.4 119.2 21.3 128.6 27.2 128.6 27.2 128.6 27.2 128.6 27.2 128.6 27.2 128.6 27.2 128.6 27.2 129 27.4 129.4 27.4 129.8 27.3 130.2 27.2 130.4 27 130.5 26.7 130.5 26.7 130.5 26.7 130.5 26.7 130.5 26.7 130.5 26.7 130.5 26.7 130.5 21 130.5 15.2 130.5 9.5 139.8 15.4 149.1 21.3 158.5 27.2 158.5 27.2 158.5 27.2 158.5 27.2 158.5 27.2 158.5 27.2 158.5 27.2 158.9 27.4 159.3 27.4 159.7 27.3 160.1 27.2 160.3 27 160.4 26.7 160.4 26.7 160.4 26.7 160.4 26.7 160.4 26.7 160.4 26.7 160.4 26.7 160.4 21 160.4 15.2 160.4 9.5 169.7 15.4 179 21.3 188.4 27.2 188.4 27.2 188.4 27.2 188.4 27.2 188.4 27.2 188.4 27.2 188.4 27.2 188.8 27.4 189.2 27.4 189.6 27.3 190 27.2 190.2 27 190.3 26.7 190.3 26.7 190.3 26.7 190.3 26.7 190.3 26.7 190.3 26.7 190.3 26.7 190.3 21 190.3 15.2 190.3 9.5 199.6 15.4 208.9 21.3 218.3 27.2 218.3 27.2 218.3 27.2 218.3 27.2 218.3 27.2 218.3 27.2 218.3 27.2 218.7 27.4 219.1 27.4 219.5 27.3 219.9 27.2 220.1 27 220.2 26.7 220.2 26.7 220.2 26.7 220.2 26.7 220.2 26.7 220.2 26.7 220.2 26.7 220.2 21 220.2 15.2 220.2 9.5 229.5 15.4 238.8 21.3 248.2 27.2 249.1 27.9 250.6 26.9 249.6 26.3Z" fill="#E0E0E0"/><path d="M250.5 7.9C250.5 7.3 249.8 6.9 248.9 6.9 225.4 6.9 201.9 6.9 178.3 6.9 140.8 6.9 103.4 6.9 65.9 6.9 57.3 6.9 48.7 6.9 40.2 6.9 39.3 6.9 38.6 7.4 38.6 7.9 38.6 14.2 38.6 20.5 38.6 26.7 38.6 27.3 39.3 27.7 40.2 27.7 63.7 27.7 87.2 27.7 110.8 27.7 148.3 27.7 185.7 27.7 223.2 27.7 231.8 27.7 240.4 27.7 248.9 27.7 249.4 27.7 249.7 27.6 250 27.4 250 27.4 250 27.4 250.1 27.4 250.1 27.4 250.1 27.4 250.1 27.4 250.4 27.2 250.5 27 250.5 26.7 250.5 20.5 250.5 14.2 250.5 7.9ZM178.3 25.7C140.8 25.7 103.4 25.7 65.9 25.7 57.9 25.7 49.8 25.7 41.8 25.7 41.8 20.1 41.8 14.5 41.8 8.9 64.8 8.9 87.7 8.9 110.7 8.9 148.2 8.9 185.6 8.9 223.1 8.9 231.1 8.9 239.2 8.9 247.2 8.9 247.2 14.5 247.2 20.1 247.2 25.7 224.3 25.7 201.3 25.7 178.3 25.7Z" fill="#F0F0F0"/></g><g><path d="M457.9 26.3C448 20 438 13.7 428.1 7.4 427.4 7 426.2 7.3 426.2 7.9 426.2 13.6 426.2 19.4 426.2 25.1 416.9 19.2 407.6 13.3 398.2 7.4 397.5 7 396.3 7.3 396.3 7.9 396.3 13.6 396.3 19.4 396.3 25.1 387 19.2 377.7 13.3 368.3 7.4 367.6 7 366.4 7.3 366.4 7.9 366.4 13.6 366.4 19.4 366.4 25.1 357.1 19.2 347.8 13.3 338.4 7.4 337.7 7 336.5 7.3 336.5 7.9 336.5 13.6 336.5 19.4 336.5 25.1 327.2 19.2 317.9 13.3 308.5 7.4 308.2 7 307 7.3 307 7.9 307 13.6 307 19.4 307 25.1 297.7 19.2 288.4 13.3 279 7.4 278.3 7 277.1 7.3 277.1 7.9 277.1 13.6 277.1 19.4 277.1 25.1 267.8 19.2 258.5 13.3 249.1 7.4 248.1 6.8 246.6 7.7 247.6 8.4 257.5 14.7 267.5 21 277.4 27.2 277.4 27.2 277.4 27.2 277.4 27.2 277.4 27.2 277.4 27.2 277.4 27.2 277.8 27.4 278.2 27.4 278.6 27.3 279 27.2 279.2 27 279.3 26.7 279.3 26.7 279.3 26.7 279.3 26.7 279.3 26.7 279.3 26.7 279.3 26.7 279.3 21 279.3 15.2 279.3 9.5 288.6 15.4 297.9 21.3 307.3 27.2 307.3 27.2 307.3 27.2 307.3 27.2 307.3 27.2 307.3 27.2 307.3 27.2 307.7 27.4 308.1 27.4 308.5 27.3 308.9 27.2 309.1 27 309.2 26.7 309.2 26.7 309.2 26.7 309.2 26.7 309.2 26.7 309.2 26.7 309.2 26.7 309.2 21 309.2 15.2 309.2 9.5 318.5 15.4 327.8 21.3 337.2 27.2 337.2 27.2 337.2 27.2 337.2 27.2 337.2 27.2 337.2 27.2 337.2 27.2 337.6 27.4 338 27.4 338.4 27.3 338.8 27.2 339 27 339.1 26.7 339.1 26.7 339.1 26.7 339.1 26.7 339.1 26.7 339.1 26.7 339.1 26.7 339.1 21 339.1 15.2 339.1 9.5 348.4 15.4 357.7 21.3 367.1 27.2 367.1 27.2 367.1 27.2 367.1 27.2 367.1 27.2 367.1 27.2 367.1 27.2 367.5 27.4 367.9 27.4 368.3 27.3 368.7 27.2 368.9 27 369 26.7 369 26.7 369 26.7 369 26.7 369 26.7 369 26.7 369 26.7 369 21 369 15.2 369 9.5 378.3 15.4 387.6 21.3 397 27.2 397 27.2 397 27.2 397 27.2 397 27.2 397 27.2 397 27.2 397.4 27.4 397.8 27.4 398.2 27.3 398.6 27.2 398.8 27 398.9 26.7 398.9 26.7 398.9 26.7 398.9 26.7 398.9 26.7 398.9 26.7 398.9 26.7 398.9 21 398.9 15.2 398.9 9.5 408.2 15.4 417.5 21.3 426.9 27.2 426.9 27.2 426.9 27.2 426.9 27.2 426.9 27.2 426.9 27.2 426.9 27.2 427.3 27.4 427.7 27.4 428.1 27.3 428.5 27.2 428.7 27 428.8 26.7 428.8 26.7 428.8 26.7 428.8 26.7 428.8 26.7 428.8 26.7 428.8 26.7 428.8 21 428.8 15.2 428.8 9.5 438.1 15.4 447.4 21.3 456.8 27.2 457.4 27.9 458.9 26.9 457.9 26.3Z" fill="#E0E0E0"/><path d="M458.8 7.9C458.8 7.3 458.1 6.9 457.2 6.9 433.7 6.9 410.2 6.9 386.6 6.9 349.1 6.9 311.7 6.9 274.2 6.9 265.6 6.9 257 6.9 248.5 6.9 247.6 6.9 246.9 7.4 246.9 7.9 246.9 14.2 246.9 20.5 246.9 26.7 246.9 27.3 247.6 27.7 248.5 27.7 272 27.7 295.5 27.7 319.1 27.7 356.6 27.7 394 27.7 431.5 27.7 440.1 27.7 448.7 27.7 457.2 27.7 457.7 27.7 458 27.6 458.3 27.4 458.3 27.4 458.3 27.4 458.4 27.4 458.4 27.4 458.4 27.4 458.4 27.4 458.7 27.2 458.8 27 458.8 26.7 458.8 20.5 458.8 14.2 458.8 7.9ZM386.6 25.7C349.1 25.7 311.7 25.7 274.2 25.7 266.2 25.7 258.1 25.7 250.1 25.7 250.1 20.1 250.1 14.5 250.1 8.9 273.1 8.9 296 8.9 319 8.9 356.5 8.9 393.9 8.9 431.4 8.9 439.4 8.9 447.5 8.9 455.5 8.9 455.5 14.5 455.5 20.1 455.5 25.7 432.5 25.7 409.6 25.7 386.6 25.7Z" fill="#F0F0F0"/></g></g><g><rect x="316.7" y="7.2" width="3.3" height="29.1" fill="#E0E0E0"/><rect x="443.6" y="7.2" width="3.3" height="29.1" fill="#E0E0E0"/><rect x="299.1" y="34.2" width="160" height="97.2" fill="#EBEBEB"/><rect x="304" y="38" width="144.8" height="88" fill="#FAFAFA"/><rect x="453.6" y="34.2" width="5.5" height="97.2" fill="#E0E0E0"/></g><g><g><rect x="256.9" y="35.1" width="21.7" height="1" fill="#E0E0E0" transform="matrix(0.6322 -0.7748 0.7748 0.6322 70.8865 220.57)"/></g><g><rect x="60" y="26.7" width="1" height="16.9" fill="#E0E0E0" transform="matrix(0.8743 -0.4854 0.4854 0.8743 -9.4855 33.7705)"/></g><g><g><path d="M64 41.4 61 82.5C61 82.5 120.1 91 159.5 91 204.5 91 265.8 82.5 265.8 82.5L263 41.4C263 41.4 191.4 50.1 157.8 50.1 125.2 50 64 41.4 64 41.4Z" fill="#E6E6E6"/></g><g><g><path d="M112.9 62.4 112.7 63.9 110.9 63.7 111.1 62.1C111.3 60.6 110.7 59.6 109.4 59.5 108 59.4 107.3 60.2 107.2 61.7L106.3 70.6C106.1 72.1 106.7 73.1 108 73.2 109.4 73.3 110.1 72.5 110.2 71L110.4 68.8 112.2 69 112 71.1C111.7 73.7 110.4 75.2 107.8 75 105.2 74.7 104.2 72.9 104.4 70.4L105.3 61.7C105.6 59.1 106.9 57.6 109.5 57.8 112.2 58 113.2 59.9 112.9 62.4Z" fill="#FFFFFF"/></g><g><path d="M117.9 62.9C118.1 60.3 119.6 58.8 122.1 59 124.7 59.2 125.8 61 125.6 63.6L124.8 72.3C124.6 74.9 123.1 76.4 120.5 76.2 117.9 76 116.8 74.2 117 71.6L117.9 62.9ZM119 71.9C118.9 73.4 119.4 74.4 120.8 74.5 122.2 74.6 122.9 73.8 123 72.2L123.8 63.3C123.9 61.8 123.4 60.8 122 60.7 120.6 60.6 119.9 61.4 119.8 63L119 71.9Z" fill="#FFFFFF"/></g><g><path d="M131.5 77 129.8 76.9 131 60 133.4 60.2 136.4 72.7 137.3 60.5 139 60.6 137.8 77.5 135.8 77.4 132.5 63.4 131.5 77Z" fill="#FFFFFF"/></g><g><path d="M149.6 69 149.5 70.7 145.6 70.5 145.2 77.8 143.3 77.7 144.2 60.7 150.9 61.1 150.8 62.8 146 62.5 145.7 68.7 149.6 69Z" fill="#FFFFFF"/></g><g><path d="M161.5 69 161.5 70.7 157.4 70.6 157.3 76.6 162.4 76.7 162.4 78.4 155.4 78.2 155.8 61.2 162.8 61.4 162.8 63.1 157.7 63 157.6 68.8 161.5 69Z" fill="#FFFFFF"/></g><g><path d="M171.5 61.5C174.2 61.5 175.3 62.8 175.3 65.3L175.3 66.7C175.3 68.6 174.7 69.7 173.2 70.2 174.8 70.6 175.4 71.9 175.4 73.7L175.4 76.3C175.4 77.1 175.4 77.8 175.8 78.3L173.9 78.3C173.7 77.8 173.6 77.4 173.6 76.2L173.6 73.5C173.6 71.6 172.7 71 171.1 71L169.8 71 169.9 78.3 168 78.3 167.8 61.3 171.5 61.5ZM171.1 69.5C172.6 69.5 173.5 69 173.5 67.1L173.5 65.5C173.5 64 172.9 63.2 171.5 63.2L169.7 63.2 169.8 69.5 171.1 69.5Z" fill="#FFFFFF"/></g><g><path d="M186.7 68.6 186.8 70.3 182.7 70.5 182.9 76.5 188 76.3 188 78 181 78.3 180.3 61.3 187.3 61 187.4 62.7 182.3 62.9 182.5 68.7 186.7 68.6Z" fill="#FFFFFF"/></g><g><path d="M195 77.6 193.3 77.7 192.3 60.7 194.7 60.6 199.3 72.6 198.6 60.3 200.3 60.2 201.3 77.2 199.3 77.3 194.2 63.9 195 77.6Z" fill="#FFFFFF"/></g><g><path d="M213.3 63.5 213.4 65 211.6 65.1 211.5 63.5C211.4 62 210.7 61.1 209.3 61.2 207.9 61.3 207.4 62.3 207.5 63.8L208.2 72.7C208.3 74.2 209 75.1 210.4 75 211.8 74.9 212.3 73.9 212.2 72.4L212 70.2 213.8 70.1 214 72.2C214.2 74.8 213.1 76.5 210.5 76.7 207.9 76.9 206.6 75.3 206.4 72.7L205.7 63.9C205.5 61.3 206.6 59.6 209.2 59.4 211.7 59.3 213.1 60.9 213.3 63.5Z" fill="#FFFFFF"/></g><g><path d="M224.7 65.9 224.8 67.6 220.7 68 221.2 74 226.3 73.6 226.5 75.3 219.5 75.9 218 59 225 58.4 225.2 60.1 220.1 60.5 220.6 66.3 224.7 65.9Z" fill="#FFFFFF"/></g></g></g></g><g><path d="M144.4 154.7C144.4 154.9 144.4 155.1 144.4 155.4 144.6 155.3 144.8 155.2 145 155.1 144.8 155 144.6 154.8 144.4 154.7Z" fill="#FAFAFA"/></g><g><path d="M182.5 299.2C180.6 298.8 177.9 297.7 176.2 296.6 176.6 296.7 176.9 296.7 177.3 296.5 177.5 296.4 177.6 296.1 177.6 295.8 177.6 295.6 177.5 295.5 177.4 295.4 177.1 295.2 176.4 295.3 175.8 295.5 176.2 295.1 176.6 294.6 176.6 294.3 176.6 294.1 176.4 293.9 176.2 293.8 176 293.7 175.8 293.8 175.6 293.9 175.2 294.2 175 294.9 174.8 295.4L174.8 295.4C174.7 295.3 174.6 295.3 174.4 295.3L173.9 295.2 175.2 289.5 177.7 289.8 179.3 285.5 177.1 285.2C178.6 278.7 182 262.4 183.6 243.9 183.7 227.7 141.3 222.2 141.2 222.2 141.3 219.3 141.8 214.3 141.8 214.3 143.3 216.1 156.7 224.3 157.6 224.2 158.1 224.2 158.6 224.1 159 224 159.3 223.9 159.7 223.9 160 223.8 161.4 224 162.9 223.8 162.9 223.8L162.9 223.8 168 224.4 167.7 218.9 164.4 217.8 164.4 217.8 164.4 217.8 164.4 217.8 161.3 218.1C160.4 218.3 159.6 218.8 158.9 219.4L158.8 219.4 157.6 219.2C156.8 219.1 156.1 218.9 155.3 218.7 153.9 218.3 147.1 208.8 146.9 208.3 146.7 207.7 146.6 207.1 146.5 206.5 146.3 205 146.1 203.5 146.1 202.1 146.1 201.7 146.1 201.4 146.1 201L150 200.2C149.6 196 148.9 191.9 147.8 187.9 146.6 183.3 144.2 180.6 141.6 180.1L138.1 178.3C138 177.7 137.9 177.1 138 176.4 139.2 176.8 140.6 176.9 141.7 176.4 140.6 176.6 139.6 175.9 139 175 138.8 174.6 138.6 174.3 138.4 173.9 138.4 173.8 138.4 173.8 138.4 173.8 138.5 173.8 138.6 173.8 138.7 173.8 139 173.8 139.3 173.8 139.6 173.8 139.6 173.8 139.6 173.7 139.6 173.7 142.9 173.2 145.8 170.6 146.6 166.9 146.7 166.5 146.8 166 146.8 165.5 147 166.5 147.1 167.5 147.1 168.5 147.1 171.7 145.8 174.9 143.4 176.9 145.4 176.8 147.2 175.5 148.2 173.8 149.2 172.1 149.7 170.1 150 168.1 150.5 165.2 150.9 162.3 150.4 159.4 150 156.5 148.7 153.7 146.4 151.9 145.5 151.2 144.3 150.6 143.1 150.7 142.6 150.7 142.3 150.8 142 150.9 141.8 151 141.6 151.1 141.4 151.2 141.4 151 141.4 150.8 141.4 150.5 141.4 150.2 141.3 150 141.3 149.7 141.2 149.5 141 149.3 140.9 149.2 139.8 148.3 138.1 148.4 136.8 149 136.3 149.3 135.8 149.6 135.4 150 133.9 150.5 132.6 151.3 131.5 152.5 131.3 152.7 131.2 152.9 131 153.1 130.5 153.8 130.1 154.5 129.9 155.3 129.5 156.5 129.3 157.7 129.5 158.9 129.6 159.5 129.6 160.2 129.7 160.7 129.7 160.9 129.7 161.1 129.7 161.2 128.4 161.3 127.7 162.7 128.1 164 128.4 165.3 129.2 166.3 130.3 167.1 130.4 167.2 130.5 167.2 130.6 167.2 130.7 167.7 130.9 168.1 131.1 168.6 131.3 169 131.5 169.3 131.7 169.6 131.2 171.7 130.3 173.7 128.9 175.3 128.8 175.4 128.7 175.5 128.6 175.6 128.6 175.6 128.6 175.6 128.6 175.6L123 175.3C122.4 175.2 121.7 175.2 120.9 175.3 115.1 176.1 110.9 193.3 110.9 193.3 108.8 197.7 108 201.4 109.8 205.3 110.2 206.2 110.8 207 111.4 207.7 111 212.3 110.7 217.1 110.6 221.8 110.6 221.8 109.2 225.9 109.2 230.7 109.2 234 109.9 237.6 112.1 240.5 112.6 241 113.1 241.4 113.7 241.8 111.5 242.3 109.8 244.3 109.8 246.7L109.8 248.1 113.8 248.1 113.8 300.2 117.3 300.2 117.3 248.1 126 248.1 126 300.2 129.5 300.2 129.5 248.1 136.4 248.1 136.4 300.2 139.9 300.2 139.9 248.1 146.4 248.1 146.4 300.2 148.3 300.2C148.2 300.3 148.2 300.3 148.2 300.4L147.3 305.3C147.2 305.8 147.6 306.3 148.2 306.4 150.4 306.6 151.5 306.6 154.2 306.9 155.9 307.1 159.2 307.6 161.6 307.5 164 307.4 163.8 305.1 162.8 304.9 160.8 304.6 158.4 303.2 156.8 301.9 156.8 301.9 156.8 301.9 156.9 301.9 157.3 302 157.7 301.9 158 301.7 158.2 301.5 158.3 301.3 158.2 301 158.2 300.8 158.1 300.7 157.9 300.6 157.6 300.4 156.9 300.6 156.4 300.8 156.8 300.4 157 299.9 157 299.6 157 299.4 156.8 299.2 156.6 299.2 156.4 299.1 156.2 299.2 156 299.3 155.6 299.6 155.4 300.3 155.4 300.8 155.4 300.8 155.4 300.8 155.4 300.8 155.3 300.8 155.2 300.7 155 300.7L154.9 300.7 155.7 295.4 155.8 294.7 159.2 295 160.4 289.7 159 289.6C160.2 285.2 165.6 263.8 166.2 246 167.5 246.3 168.7 246.5 169.7 246.8 167.2 257.7 168 277.3 168.3 283.9L165.6 283.5 165.2 288.1 169 288.6 168.6 290.1 168.6 290.1 167.7 294 167.4 293.9C167.2 293.8 167 294 166.9 294.2 166.9 294.2 166.9 294.2 166.9 294.2L165.6 299.1C165.5 299.6 165.8 300.2 166.4 300.3 168.6 300.7 169.5 300.7 172.3 301.1 174 301.3 178.1 301.8 180.4 301.7 183.6 301.8 183.5 299.4 182.5 299.2ZM150.7 247.9 150.7 247.9C150.8 248.2 150.7 248.4 150.7 248.7L150.7 247.9ZM150.8 295 150.6 296.1 150.6 294.1 150.8 294.1 150.8 295ZM158.5 300.8C158.6 300.9 158.6 300.9 158.6 301 158.6 301.2 158.6 301.4 158.5 301.5 158.3 301.7 157.8 301.7 157.1 301.5 157 301.4 156.9 301.3 156.8 301.2 157.4 300.9 158.1 300.7 158.5 300.8ZM156.3 300.9C156.4 300.4 156.5 299.7 156.8 299.4 156.9 299.3 157 299.3 157.1 299.3L157.2 299.3C157.4 299.4 157.4 299.4 157.4 299.5 157.4 299.9 156.9 300.5 156.4 300.9 156.4 300.9 156.4 300.9 156.4 300.9 156.4 301 156.3 300.9 156.3 300.9 156.3 300.9 156.3 300.9 156.3 300.9ZM175.1 295.6C175.1 295.6 175 295.5 175 295.5 175 295.5 175 295.5 175 295.5 175.1 295 175.3 294.3 175.7 294 175.8 293.9 175.9 293.9 176 293.9 176 293.9 176 293.9 176 293.9 176.2 294 176.2 294 176.2 294.1 176.2 294.6 175.6 295.2 175.1 295.6 175.1 295.6 175.1 295.6 175.1 295.6ZM175.4 295.9C176.1 295.6 176.9 295.5 177.2 295.6 177.3 295.7 177.3 295.7 177.3 295.8 177.3 296 177.3 296.1 177.1 296.2 176.8 296.4 176.3 296.3 175.7 296.1 175.6 296.1 175.5 296 175.4 295.9Z" fill="#FAFAFA"/><path d="M259.6 294.7C257.6 294.3 254.9 293.3 253.3 292.1 253.7 292.2 254 292.2 254.4 292 254.6 291.9 254.7 291.6 254.7 291.3 254.7 291.1 254.6 291 254.5 290.9 254.2 290.7 253.5 290.8 252.9 291 253.3 290.6 253.7 290.1 253.7 289.8 253.7 289.6 253.5 289.4 253.3 289.3 253.1 289.2 252.9 289.3 252.7 289.4 252.3 289.7 252.1 290.4 251.9 290.9L251.9 290.9C251.8 290.8 251.7 290.8 251.5 290.7L251 290.6 252.3 284.9 254.9 285.2 256.5 280.9 254.3 280.6C255.8 274.1 259.2 257.8 260.8 239.2 260.9 223 218.5 217.5 218.4 217.5 218.6 214.6 219 209.6 219.1 209.6 220.6 211.4 234 219.6 234.9 219.5 235.4 219.4 235.8 219.4 236.3 219.3 236.6 219.2 237 219.2 237.3 219.1 238.7 219.3 240.2 219.1 240.2 219.1L240.2 219.1 245.3 219.7 245 214.2 241.7 213.1 241.7 213.1 241.7 213.1 238.6 213.4C237.7 213.6 236.9 214.1 236.2 214.7L236.1 214.7 234.9 214.5C234.1 214.3 233.4 214.2 232.6 214 231.2 213.6 224.4 204.1 224.3 203.6 224.1 203 224 202.4 223.9 201.7 223.7 200.2 223.5 198.7 223.5 197.3 223.5 196.9 223.5 196.6 223.5 196.2L227.4 195.4C227 191.2 226.3 187.1 225.2 183.1 224 178.4 221.6 175.7 219 175.3L215.5 173.5C215.3 172.5 215.4 171.4 215.6 170.2 215.7 169.8 215.8 169.3 215.9 168.9 216 168.9 216.1 168.9 216.2 168.9 216.5 168.9 216.8 168.9 217.1 168.9 217.1 168.9 217.1 168.8 217.1 168.8 220.4 168.3 223.3 165.7 224.1 162 224.6 159.7 224.7 156.9 224.2 154.3 224.2 154.3 224.2 154.3 224.2 154.3 224.1 154 224.1 153.7 224 153.4 223.7 151.8 223.1 150.3 222.3 149 222.1 148.7 221.9 148.4 221.7 148.2 222.1 148 222.4 147.7 222.7 147.4 223.9 145.9 223.2 143.8 222.5 142 221.3 142.1 220.1 142.1 218.9 141.8 219.2 143 218.2 144.1 217.1 144.5 216 144.9 214.8 144.6 213.6 144.7 209.9 145 207.6 146.5 207.1 147.7 206.7 148.9 206.5 150.3 206.4 151.6 206.3 152.9 206.2 154.3 206.7 155.5 206.8 155.7 206.9 155.8 207 156L207 156C207 156.2 207 156.4 207 156.5 205.7 156.6 205.1 157.9 205.4 159.3 205.7 160.6 206.5 161.6 207.6 162.4 207.7 162.5 207.8 162.5 207.9 162.5 208.1 163 208.2 163.4 208.4 163.9 208.6 164.3 208.8 164.6 209 164.9 208.4 167 207.6 169 206.2 170.5 206.1 170.6 206 170.7 205.9 170.8 205.9 170.8 205.9 170.8 205.9 170.8L200.3 170.5C199.7 170.4 199 170.4 198.2 170.5 192.4 171.3 188.2 188.5 188.2 188.5 186.1 192.9 185.3 196.6 187 200.5 187.4 201.4 188 202.2 188.6 202.9 188.2 207.5 188 212.3 187.8 217 187.8 217 186.4 221.1 186.4 225.9 186.4 229.2 187.1 232.8 189.3 235.7 189.7 236.2 190.3 236.6 190.9 237 188.7 237.5 187 239.5 187 241.9L187 243.3 191 243.3 191 295.5 194.5 295.5 194.5 243.3 203.2 243.3 203.2 295.5 206.7 295.5 206.7 243.3 213.6 243.3 213.6 295.5 217.1 295.5 217.1 243.3 223.6 243.3 223.6 295.5 225.5 295.5C225.4 295.5 225.4 295.6 225.4 295.7L224.5 300.6C224.4 301.1 224.8 301.6 225.4 301.7 227.6 301.9 228.7 301.9 231.4 302.2 233.1 302.4 236.4 302.9 238.8 302.8 241.2 302.7 241 300.4 240 300.2 238 299.9 235.6 298.5 234 297.2 234 297.2 234 297.2 234 297.2 234.4 297.3 234.8 297.2 235.1 297 235.3 296.8 235.4 296.6 235.3 296.3 235.3 296.1 235.2 296 235 295.9 234.7 295.7 234 295.9 233.5 296.1 233.9 295.7 234.2 295.2 234.1 294.9 234.1 294.7 233.9 294.5 233.7 294.4 233.5 294.3 233.3 294.4 233.1 294.5 232.7 294.8 232.5 295.5 232.5 296L232.5 296C232.4 296 232.2 295.9 232.1 295.9L232 295.9 232.8 290.6 232.9 289.9 236.3 290.2 237.5 284.9 236 284.8C237.2 280.4 242.6 259 243.3 241.2 244.6 241.5 245.8 241.7 246.8 242 244.3 252.9 245.1 272.4 245.4 279.1L242.7 278.7 242.3 283.3 246.1 283.8 245.8 285.3 244.9 289.2 244.6 289.1C244.4 289 244.2 289.2 244.1 289.4 244.1 289.4 244.1 289.4 244.1 289.4L242.8 294.3C242.7 294.8 243.1 295.4 243.6 295.5 245.8 295.9 246.7 295.9 249.5 296.3 251.2 296.5 255.3 297 257.6 297 260.7 297.3 260.6 294.9 259.6 294.7ZM227.8 243.4 227.9 243.4C227.9 243.7 227.8 243.9 227.8 244.2L227.8 243.4ZM227.9 290.5 227.7 291.6 227.7 289.6 227.9 289.6 227.9 290.5ZM235.6 296.3C235.7 296.3 235.7 296.4 235.7 296.5 235.7 296.7 235.7 296.9 235.5 297 235.3 297.2 234.8 297.2 234.1 297 234 296.9 233.9 296.8 233.8 296.7 234.5 296.4 235.3 296.2 235.6 296.3ZM233.4 296.4C233.5 295.9 233.6 295.2 233.9 294.9 234 294.8 234.1 294.8 234.2 294.8L234.3 294.8C234.5 294.8 234.5 294.9 234.5 295 234.5 295.4 234 296 233.5 296.4 233.5 296.4 233.5 296.4 233.5 296.4 233.5 296.5 233.4 296.4 233.4 296.4L233.4 296.4ZM252.2 291.1C252.2 291.1 252.1 291 252.1 291 252.1 291 252.1 291 252.1 291 252.2 290.5 252.4 289.8 252.8 289.5 252.9 289.4 253 289.4 253.1 289.4 253.1 289.4 253.1 289.4 253.2 289.4 253.4 289.5 253.4 289.5 253.4 289.6 253.3 290.1 252.7 290.8 252.2 291.1 252.2 291.1 252.2 291.1 252.2 291.1ZM252.5 291.4C253.2 291.1 254 290.9 254.3 291.1 254.4 291.1 254.4 291.2 254.4 291.3 254.4 291.5 254.4 291.6 254.2 291.7 253.9 291.9 253.4 291.8 252.8 291.6 252.7 291.6 252.6 291.5 252.5 291.4Z" fill="#FAFAFA"/><path d="M92.6 294.7C90.6 294.3 87.9 293.3 86.3 292.1 86.7 292.2 87 292.2 87.4 292 87.6 291.9 87.7 291.6 87.7 291.3 87.7 291.1 87.6 291 87.5 290.9 87.2 290.7 86.5 290.8 85.9 291 86.3 290.6 86.7 290.1 86.7 289.8 86.7 289.6 86.5 289.4 86.3 289.3 86.1 289.2 85.9 289.3 85.7 289.4 85.3 289.7 85.1 290.4 84.9 290.9L84.9 290.9C84.8 290.8 84.7 290.8 84.5 290.7L84 290.6 85.3 284.9 87.9 285.2 89.5 280.9 87.3 280.6C88.8 274.1 92.2 257.8 93.8 239.2 93.9 223 51.5 217.5 51.4 217.5 51.6 214.6 52 209.6 52.1 209.6 53.6 211.4 67 219.6 67.9 219.5 68.4 219.4 68.8 219.4 69.3 219.3 69.6 219.2 70 219.2 70.3 219.1 71.8 219.3 73.2 219.1 73.2 219.1L73.2 219.1 78.3 219.7 78 214.2 74.7 213.1 74.7 213.1 74.7 213.1 71.6 213.4C70.7 213.6 69.9 214.1 69.2 214.7L69.1 214.7 67.9 214.5C67.1 214.3 66.4 214.2 65.6 214 64.2 213.6 57.4 204.1 57.3 203.6 57.1 203 57 202.4 56.9 201.7 56.7 200.2 56.5 198.7 56.5 197.3 56.5 196.9 56.5 196.6 56.5 196.2L60.4 195.4C60 191.2 59.3 187.1 58.2 183.1 57 178.4 54.6 175.7 52 175.3L48.5 173.5C48.3 172.5 48.4 171.4 48.6 170.2 48.7 169.8 48.8 169.3 48.9 168.9 49 168.9 49.1 168.9 49.2 168.9 49.5 168.9 49.8 168.9 50.1 168.9 50.1 168.9 50.1 168.8 50.1 168.8 53.4 168.3 56.3 165.7 57.1 162 57.6 159.7 57.7 156.9 57.2 154.3 57.2 154.3 57.2 154.3 57.2 154.3 57.2 154 57.1 153.7 57 153.4 56.7 151.8 56.1 150.3 55.3 149 55.1 148.7 54.9 148.4 54.7 148.2 55.1 148 55.4 147.7 55.7 147.4 56.9 145.9 51.3 144.6 50.1 144.6 48 144.5 45.8 143.7 40.1 147.9 39.1 148.7 39.6 150.5 39.5 151.8 39.4 153.1 39.3 154.5 39.8 155.7 39.9 155.9 40 156 40.1 156.2L40.1 156.2C40.1 156.4 40.1 156.6 40.2 156.7 38.9 156.8 38.2 158.1 38.6 159.5 38.9 160.8 39.7 161.8 40.8 162.6 40.9 162.7 41 162.7 41.1 162.7 41.3 163.2 41.4 163.6 41.6 164.1 41.8 164.5 42 164.8 42.2 165.1 41.7 167.2 40.8 169.2 39.4 170.7 39.3 170.8 39.2 170.9 39.1 171 39.1 171 39.1 171 39.1 171L38 170.9 38 295.5 40.1 295.5 40.1 243.3 47 243.3 47 295.5 50.5 295.5 50.5 243.3 57 243.3 57 295.5 58.9 295.5C58.8 295.5 58.8 295.6 58.8 295.7L57.9 300.6C57.8 301.1 58.2 301.6 58.8 301.7 61 301.9 62.1 301.9 64.8 302.2 66.5 302.4 69.8 302.9 72.2 302.8 74.6 302.7 74.4 300.4 73.4 300.2 71.4 299.9 69 298.5 67.4 297.2 67.4 297.2 67.4 297.2 67.4 297.2 67.8 297.3 68.2 297.2 68.5 297 68.7 296.8 68.8 296.6 68.7 296.3 68.7 296.1 68.6 296 68.4 295.9 68.1 295.7 67.4 295.9 66.9 296.1 67.3 295.7 67.6 295.2 67.5 294.9 67.5 294.7 67.3 294.5 67.1 294.4 66.9 294.3 66.7 294.4 66.5 294.5 66.1 294.8 66 295.5 65.9 296L65.9 296C65.8 296 65.6 295.9 65.5 295.9L65.4 295.9 66.2 290.6 66.3 289.9 69.7 290.2 70.9 284.9 69.4 284.8C70.6 280.4 76 259 76.7 241.2 78 241.5 79.2 241.7 80.2 242 77.7 252.9 78.5 272.4 78.8 279.1L76.1 278.7 75.7 283.3 79.5 283.8 79.2 285.3 78.3 289.2 78 289.1C77.8 289 77.6 289.2 77.5 289.4 77.5 289.4 77.5 289.4 77.5 289.4L76.2 294.3C76.1 294.8 76.5 295.4 77 295.5 79.2 295.9 80.1 295.9 82.9 296.3 84.6 296.5 88.7 297 91 297 93.7 297.3 93.6 294.9 92.6 294.7ZM60.8 243.4 60.9 243.4C60.9 243.7 60.8 243.9 60.8 244.2L60.8 243.4ZM61 290.5 60.8 291.6 60.8 289.6 61 289.6 61 290.5ZM68.6 296.3C68.7 296.3 68.7 296.4 68.7 296.5 68.7 296.7 68.7 296.9 68.5 297 68.3 297.2 67.8 297.2 67.1 297 67 296.9 66.9 296.8 66.8 296.7 67.5 296.4 68.3 296.2 68.6 296.3ZM66.4 296.4C66.5 295.9 66.6 295.2 66.9 294.9 67 294.8 67.1 294.8 67.2 294.8L67.3 294.8C67.5 294.8 67.5 294.9 67.5 295 67.5 295.4 67 296 66.5 296.4 66.5 296.4 66.5 296.4 66.5 296.4 66.5 296.5 66.4 296.4 66.4 296.4L66.4 296.4ZM85.2 291.1C85.2 291.1 85.1 291 85.1 291 85.1 291 85.1 291 85.1 291 85.2 290.5 85.4 289.8 85.8 289.5 85.9 289.4 86 289.4 86.1 289.4 86.1 289.4 86.1 289.4 86.1 289.4 86.3 289.5 86.3 289.5 86.3 289.6 86.4 290.1 85.8 290.8 85.2 291.1 85.3 291.1 85.3 291.1 85.2 291.1ZM85.5 291.4C86.2 291.1 87 290.9 87.3 291.1 87.4 291.1 87.4 291.2 87.4 291.3 87.4 291.5 87.4 291.6 87.2 291.7 86.9 291.9 86.4 291.8 85.8 291.6 85.7 291.6 85.6 291.5 85.5 291.4Z" fill="#FAFAFA"/></g><g><path d="M88.7 170.9C89.7 173.4 91.7 175.6 94.3 176.2 93.6 172.6 92.7 169 91.5 165.5 91.3 164.8 91 164 90.5 163.5 87.1 159.6 88.1 169.5 88.7 170.9Z" fill="#E0E0E0"/><g><g><rect x="112.4" y="246.4" width="3.5" height="52.1" fill="#E0E0E0"/><g><path d="M126.3 246.4 85.7 246.4 85.7 245C85.7 242.2 87.9 240 90.7 240L126.3 240 126.3 246.4Z" fill="#F0F0F0"/><rect x="89.7" y="246.4" width="3.5" height="52.1" fill="#E0E0E0"/><rect x="102" y="246.4" width="3.5" height="52.1" fill="#F0F0F0"/><rect x="122.5" y="246.4" width="3.5" height="52.1" fill="#F0F0F0"/></g></g><g><g><g><path d="M113.9 283.8 119.4 285.3 124.2 272.5 118.8 271Z" fill="#FAFAFA"/><path d="M121.8 283.6C121.4 283 120.7 282.7 120.1 282.5L114.5 281.4C114.2 281.3 114 281.5 113.9 281.7L112.2 286.8C112 287.4 112.3 288 112.9 288.2 112.9 288.2 112.9 288.2 112.9 288.2 115 289 116.4 288.7 119.6 289.4 121.6 289.8 125.8 291.1 128.6 291 131.4 290.9 131.4 288.1 130.2 287.9 125.9 287.3 122.7 284.8 121.8 283.6Z" fill="#E0E0E0"/><g opacity="0.1"><path d="M124.2 272.5 121.7 279.1 116.3 277.6 118.8 271Z"/></g><g><path d="M106.1 224.1C106.1 224.1 138.8 223.9 137.8 234.9 137.1 242.3 133.6 250.1 130.8 257.6 126.8 268.5 123.3 278 123.3 278L115.8 275.4C115.8 275.4 122.5 243.9 127 240.7L99.4 240.7C90.3 240.7 86.3 230.7 95.2 218.9 100.6 218.9 106.1 224.1 106.1 224.1Z" fill="#E6E6E6"/></g></g><g><g><path d="M122.6 214.5C128.1 213.7 127.5 208.1 125.5 204.4 123.8 201.3 111.4 182.5 109.2 183.8 99.6 189.4 122.6 214.5 122.6 214.5Z" fill="#E0E0E0"/></g><path d="M94 181.2C92 181.6 89.8 180.9 88.4 182.4 87 183.9 86.4 186 86.2 188.1 85.9 191 86.3 193.8 86.6 196.7 87 200.1 87.5 203.6 87.9 207 88.2 209.4 88.1 213.2 87.6 215.5L87.6 215.5C87.5 216.1 87.8 216.7 88.4 217 88.4 217 104.1 217.5 108.6 217.4 111 217.3 109.4 210.9 110.1 207.2 110.3 206.4 111.9 203 112.1 202.1 113.2 198 112.5 195.2 111.4 191 110.6 188 110.3 183.7 108.8 183.3 106.1 182.8 99.6 180 94 181.2Z" fill="#E0E0E0"/><path d="M92 183.6C91.8 183.3 86.3 178.6 85.3 184 83.9 191.5 86.8 198.8 86.8 198.8 86.8 198.8 87.5 206.9 89.8 207.7 92.1 208.5 94.4 208.7 95.2 207.3 96 205.9 96 203.9 96 203.9 96 203.9 95.6 189.2 92 183.6Z" fill="#E0E0E0"/><path d="M95.5 171C96.1 174.4 96.5 180.7 94.1 182.9 94.1 182.9 100.1 186 104 191.5 106.3 189.7 106.3 187.4 105.8 185.7 105.4 184.4 104.5 183.3 103.3 182.7 101 181.4 101.2 179 101.8 176.8L95.5 171Z" fill="#F5F5F5"/><path d="M96.3 176.8 98.5 177.7C99.5 178.1 100.5 178.2 101.5 178.2L101.5 178.2C101.4 178.7 101.2 179.7 101.5 180.3 100.1 180.8 97.9 180.1 97.1 178.9 96.8 178.3 96.5 177.4 96.3 176.8Z" opacity="0.1"/><path d="M151.8 272.8 157.9 272.8 151.5 257.5 147.4 264.5Z" fill="#E0E0E0"/><path d="M157.4 271.4 150.3 269.8C150 269.7 149.8 269.9 149.7 270.1L147.7 275.6C147.5 276.2 147.9 276.8 148.4 277 148.4 277 148.4 277 148.4 277 150.9 277.5 152.1 277.6 155.3 278.4 157.2 278.8 162.1 280.1 164.8 280.7 167.5 281.3 168.2 278.7 167.1 278.2 162.3 276 159.8 273.9 158.4 272.1 158.1 271.7 157.8 271.4 157.4 271.4Z" fill="#E0E0E0"/><g opacity="0.2"><path d="M151.5 257.5 154.2 264 148.7 267.1 147.4 264.5Z"/></g><path d="M87.4 217 86.7 219.1C86.6 219.3 86.8 219.4 87.1 219.4L110.7 220.1C110.9 220.1 111.1 220 111.1 219.9L111.4 217.8C111.4 217.7 111.2 217.5 111 217.5L87.8 216.8C87.7 216.8 87.5 216.9 87.4 217Z" fill="#E0E0E0"/><g><g><path d="M116.9 234C109.2 237.3 100.7 240.6 96.2 240.6 87 240.6 78.9 234 87.6 219 93 219 102.5 219.2 102.5 219.2 102.5 219.2 120.4 214.1 133.3 215.6 139.6 216.3 144.7 221.1 146 227.3 149.3 243.8 154.3 261.8 154.3 261.8L147.8 266.2C147.8 266.2 137.6 244.8 131.8 227.9 128.7 228.9 123 231.4 116.9 234Z" fill="#F5F5F5"/></g></g><g><path d="M137.8 234.9C137.6 236.9 137.3 239.1 136.8 241.2 136.8 241.1 136.7 241.1 136.7 241 136.7 241 136.7 241 136.7 240.9 136.7 240.8 136.7 240.8 136.6 240.7 134.9 236.4 133.2 232 131.7 227.8 131.7 227.8 131.7 227.8 131.7 227.8L131.7 227.8C135.6 229.5 138.1 231.7 137.8 234.9Z" fill="#E6E6E6"/></g><g><g><path d="M91.4 167.7C93.3 173.1 94 175.4 97.6 177.4 103 180.4 109.2 176.9 108.9 171.1 108.7 165.8 105.6 157.9 99.6 157.3 95.3 156.8 91.5 159.9 91 164.2 90.8 165.3 90.9 166.5 91.4 167.7Z" fill="#F5F5F5"/><path d="M101 167C101.1 167.5 101.5 167.7 101.8 167.7 102.1 167.6 102.2 167.2 102.1 166.7 102 166.2 101.6 166 101.3 166 101 166.1 100.9 166.5 101 167Z" fill="#E0E0E0"/><path d="M106 165.4C106.1 165.9 106.5 166.1 106.8 166.1 107.1 166 107.2 165.6 107.1 165.1 107 164.6 106.6 164.4 106.3 164.4 106 164.5 105.9 164.9 106 165.4Z" fill="#E0E0E0"/><path d="M106.2 164.5 107.2 163.9C107.2 163.9 106.9 164.9 106.2 164.5Z" fill="#E0E0E0"/><path d="M101.1 166.1 102.1 165.5C102.1 165.5 101.8 166.5 101.1 166.1Z" fill="#E0E0E0"/><path d="M91 172.9C91.7 173.8 92.8 174.5 94 174.6 95.6 174.8 96.1 173.3 95.5 172 94.9 170.8 93.4 169.2 92 169.6 90.4 170.1 90.1 171.8 91 172.9Z" fill="#F5F5F5"/><path d="M101.1 163.1C101.1 163.2 101 163.3 100.9 163.3 99.6 163.5 98.9 165.1 98.9 165.1 98.8 165.2 98.7 165.3 98.5 165.2 98.4 165.1 98.3 165 98.4 164.8 98.5 164.7 99.2 163 100.8 162.7 100.9 162.8 101.1 162.9 101.1 163.1 101.1 163 101.1 163.1 101.1 163.1Z" fill="#E0E0E0"/><g><path d="M104.5 161.8C104.4 161.8 104.3 161.8 104.3 161.9 104.2 162 104 162.1 104.1 162.2 104.9 162.6 106 163.2 106.8 163.1 106.9 163.1 107.3 163 107.2 162.9 107.1 162.8 107 162.7 106.8 162.8 106.1 162.9 105.3 162.3 104.7 162 104.6 161.9 104.6 161.8 104.5 161.8Z" fill="#E0E0E0"/></g></g></g><g><g><path d="M98.6 181.4C98.7 181.2 98.8 180.9 98.8 180.7 99.2 179.4 98.5 177.9 97.3 177.4 97.3 177.4 97.3 177.4 97.3 177.4 96.9 177.2 96.7 176.9 96.6 176.5 96.4 175 96.3 174.5 96.2 173.1 95 172.5 93.4 172.7 92.1 172.5 91.4 174 91 175.6 91 177.2 91 177.6 91 177.9 91.2 178.3 91.4 178.6 93.5 181 94.6 181.5 95.6 182 97.4 181.2 98.6 181.4Z" fill="#F5F5F5"/><path d="M98.6 181.4C98.7 181.2 98.8 180.9 98.8 180.7 99.2 179.4 98.5 177.9 97.3 177.4 97.3 177.4 97.3 177.4 97.3 177.4 96.9 177.2 96.7 176.9 96.6 176.5 96.4 175 96.3 174.5 96.2 173.1 95 172.5 93.4 172.7 92.1 172.5 91.4 174 91 175.6 91 177.2 91 177.6 91 177.9 91.2 178.3 91.4 178.6 93.5 181 94.6 181.5 95.6 182 97.4 181.2 98.6 181.4Z" fill="#FAFAFA"/></g><g><path d="M94.6 181.5C94.6 181.5 86.4 202.9 89.2 207 90.8 209.4 92.9 208.7 94.3 207.7 95.3 207 96 205.8 96.1 204.5L98.6 181.3C98.6 181.4 96.5 179.5 94.6 181.5Z" fill="#F5F5F5"/><path d="M94.6 181.5C94.6 181.5 86.4 202.9 89.2 207 90.8 209.4 92.9 208.7 94.3 207.7 95.3 207 96 205.8 96.1 204.5L98.6 181.3C98.6 181.4 96.5 179.5 94.6 181.5Z" fill="#FAFAFA"/></g></g><g><path d="M124.5 211.6C123.9 213.3 122.2 215.2 120.9 215.9 120.5 216.1 119.9 216.4 119.1 216.7 115.2 218 107.7 219.3 107.7 219.3L105.6 216.5C105.6 216.5 110.7 213.7 113.6 212.5 114.2 212.3 114.8 212 115.5 211.6 116.8 211 118.2 210.3 119.3 209.8L124.5 211.6Z" fill="#F5F5F5"/><g><path d="M127.4 212.6C126.8 213.9 125.8 214.4 123.7 215.7 121.7 216.9 118.9 217.3 119.1 216.7 119.1 216.6 119.2 216.6 119.2 216.5 120.8 215.1 118.2 212.7 117 212.1 116.5 211.9 116 211.6 115.5 211.5 115.1 211.4 114.7 211.5 114.4 211.8 113.7 211 117.1 209.1 118.1 209.2L118.8 209.2C120 209.2 121.2 209.4 122.3 209.9L124.9 210.9 127.4 212.6Z" fill="#E0E0E0"/></g><path d="M105.6 216.4 99.8 217.6C99.8 217.6 101.6 217.8 103.1 219.6 104.6 221.4 107.7 219.1 107.7 219.1L105.6 216.4Z" fill="#F5F5F5"/><path d="M99.7 217.7 97.8 222.9C97.8 222.9 99.1 224.1 100.8 223.4 102.5 222.7 104.9 220.4 104.9 220.4 104.9 220.4 102.3 217.6 99.7 217.7Z" fill="#F5F5F5"/></g></g></g></g></g><path d="M88.1 162.2C87.7 163.5 87.8 165.1 88.8 166 90.2 167.3 92.6 166.8 94.2 165.6 95.8 164.4 96.9 162.8 98.6 161.7 100.9 160.3 104 160.4 106.1 161.9 108.3 163.4 109.5 166.2 109 168.9 111.3 165.9 111.5 161.4 109.5 158.2 107.6 154.9 103.7 152.9 99.9 153.2 97.2 153.4 94.7 154.5 92.8 156.4 91.3 157.8 88.9 160 88.1 162.2Z" fill="#E0E0E0"/></g><g><g><g><g><g id="Character--inject-2_4_"><path d="M283 297.1 288.7 297.5 291.5 284.6 285.9 284.2Z" fill="#F0F0F0"/><path d="M289.6 295.2 283.4 294C283.2 293.9 283 294.1 282.9 294.3 282.9 294.3 282.9 294.3 282.9 294.3L281.7 299.2C281.6 299.7 281.9 300.3 282.5 300.4 284.7 300.8 285.6 300.8 288.4 301.2 290.1 301.4 294.2 301.9 296.5 301.8 298.9 301.8 298.8 299.4 297.8 299.2 295.4 298.7 291.9 297.3 290.6 295.7 290.3 295.5 290 295.3 289.6 295.2Z" fill="#E0E0E0"/><path d="M285.9 284.2 291.5 284.6 290.2 290.8 284.6 290.2Z" opacity="0.1"/><path d="M256.5 222.1C256.5 222.1 298.9 227.6 298.9 243.8 296.9 267.9 291.7 288.2 291.7 288.2L284.3 286.2C284.3 286.2 282.5 260 285.5 246.8 274.2 243.4 241.6 243.3 238.2 233.8 235.5 226 237 221.8 237 221.8L256.5 222.1Z" fill="#F0F0F0"/><path d="M281.1 288.2 293 289.8 294.6 285.5 281.5 283.5Z" fill="#E0E0E0"/><path d="M292.6 295.4C292.3 295.2 291.6 295.3 291 295.5 290.8 295.6 290.6 295.6 290.4 295.7 290.2 295.8 290 295.9 290 295.9 290 295.9 289.9 295.9 289.9 296 289.9 296 289.9 296 289.9 296 289.9 296 289.9 296.1 289.9 296.1 289.9 296.1 289.9 296.1 289.9 296.1 289.9 296.1 289.9 296.1 289.9 296.1L289.9 296.1C290.3 296.3 290.8 296.5 291.3 296.6L291.3 296.6C291.7 296.7 292 296.7 292.4 296.5 292.6 296.3 292.7 296.1 292.7 295.8 292.8 295.7 292.7 295.5 292.6 295.4ZM292.4 296.3C292.1 296.5 291.6 296.4 291 296.2 290.8 296.1 290.6 296.1 290.4 296 290.5 296 290.6 295.9 290.7 295.9 291.4 295.7 292.2 295.5 292.5 295.6 292.6 295.7 292.6 295.7 292.6 295.8 292.6 296 292.5 296.2 292.4 296.3Z" fill="#F0F0F0"/><path d="M291.4 293.8C291.2 293.7 291 293.8 290.8 293.9 290.4 294.2 290.2 294.9 290 295.4 289.9 295.7 289.9 295.9 289.9 296 289.9 296 289.9 296 289.9 296 289.9 296 289.9 296.1 289.9 296.1 289.9 296.1 289.9 296.1 289.9 296.1 289.9 296.1 289.9 296.1 289.9 296.1 289.9 296.1 289.9 296.1 289.9 296.1L289.9 296.1 290 296.1C290.1 296 290.3 296 290.5 295.8 290.6 295.7 290.8 295.6 290.9 295.4 291.3 295 291.7 294.5 291.7 294.2 291.7 294 291.6 293.8 291.4 293.8ZM290.4 295.6C290.3 295.6 290.3 295.7 290.2 295.7 290.2 295.6 290.2 295.6 290.2 295.5 290.3 295 290.5 294.3 290.9 294 291 293.9 291.1 293.9 291.2 293.9 291.2 293.9 291.2 293.9 291.3 293.9 291.5 294 291.5 294.1 291.5 294.1 291.5 294.6 290.9 295.3 290.4 295.6Z" fill="#F0F0F0"/><path d="M265.1 301.5 270.5 302.3 272.4 289.2 267.1 288.4Z" fill="#F0F0F0"/><path d="M270.9 300.7 264.6 300C264.4 300 264.2 300.1 264.1 300.3L263.2 305.2C263.1 305.7 263.5 306.2 264.1 306.3 266.3 306.5 267.4 306.5 270.1 306.8 271.8 307 275.1 307.5 277.5 307.4 279.9 307.3 279.7 305 278.7 304.8 276.3 304.4 273.2 302.5 271.8 301 271.6 300.9 271.2 300.7 270.9 300.7Z" fill="#E0E0E0"/><path d="M274.1 301C274.1 300.8 274 300.7 273.8 300.6 273.5 300.4 272.8 300.6 272.3 300.8 272.1 300.9 271.9 301 271.7 301 271.5 301.1 271.3 301.2 271.2 301.2 271.2 301.2 271.1 301.2 271.1 301.3 271.1 301.3 271.1 301.4 271.1 301.4 271.1 301.5 271.1 301.5 271.2 301.5 271.2 301.5 271.2 301.5 271.2 301.5 271.6 301.7 272.1 301.8 272.6 301.9 272.6 301.9 272.6 301.9 272.7 301.9 273.1 302 273.5 301.9 273.8 301.7 274 301.6 274.1 301.3 274.1 301ZM273.7 301.5C273.5 301.7 273 301.7 272.3 301.5 272.1 301.5 271.9 301.4 271.7 301.3 271.7 301.3 271.7 301.3 271.7 301.3 271.7 301.3 271.7 301.3 271.8 301.3 271.9 301.3 272 301.2 272 301.2 272.7 300.9 273.4 300.6 273.7 300.8 273.8 300.8 273.8 300.9 273.8 301 273.9 301.2 273.8 301.4 273.7 301.5Z" fill="#F0F0F0"/><path d="M272.5 299.1C272.3 299 272.1 299.1 271.9 299.2 271.5 299.5 271.3 300.2 271.3 300.7 271.3 301 271.2 301.2 271.2 301.3 271.2 301.3 271.2 301.4 271.2 301.4 271.2 301.4 271.2 301.5 271.3 301.5 271.3 301.5 271.3 301.5 271.4 301.5 271.4 301.5 271.5 301.5 271.5 301.5 271.6 301.5 271.7 301.4 271.8 301.3 271.8 301.3 271.8 301.3 271.8 301.3 271.9 301.3 271.9 301.2 272 301.1 272.1 301 272.3 300.9 272.4 300.7 272.8 300.3 273 299.8 273 299.5 272.9 299.4 272.7 299.2 272.5 299.1ZM271.7 301C271.6 301.1 271.6 301.1 271.5 301.1 271.5 301 271.5 300.9 271.5 300.8 271.6 300.3 271.7 299.6 272 299.3 272.1 299.2 272.2 299.2 272.3 299.2L272.4 299.2C272.6 299.2 272.6 299.3 272.6 299.4 272.7 299.9 272.2 300.6 271.7 301Z" fill="#F0F0F0"/><path d="M266.6 288.2 272.8 288.2 271.4 296.4 266 296Z" opacity="0.1"/><path d="M242.8 221.9C242.8 221.9 283.7 232.5 282.1 244.7 281.6 265 274.6 290.5 274.6 290.5L264.3 290.8C264.3 290.8 263.6 265.6 266.1 247.6 255.6 247.5 234.2 246.8 227.9 240.5 222.5 233.5 226.4 221.8 226.4 221.8L242.8 221.9Z" fill="#F0F0F0"/><path d="M262.7 293.8 275.1 295 276.3 289.7 262.7 288.7Z" fill="#E0E0E0"/><path d="M254.6 185.8C254.4 186.8 254.3 187.6 254.1 188.5 254 189.4 253.9 190.3 253.7 191.2 253.5 193 253.4 194.8 253.3 196.6 253.1 200.4 253.4 204.2 254.2 208 254.5 209.1 254.8 210.1 255.2 211.1 255.7 212.2 256.3 213.3 257.1 214.2 258.6 216 260.6 217.3 262.8 218.1 264.7 218.8 266.7 219.1 268.8 219.1 269.8 219.1 270.7 219.1 271.7 219 272.2 219 272.6 218.9 273.1 218.8 273.6 218.7 274 218.6 274.6 218.5L274.2 214.3 273.1 214.1 271.9 213.9C271.1 213.8 270.4 213.6 269.6 213.4 268.2 213 266.9 212.5 265.6 211.8 264.6 211.2 263.8 210.5 263.1 209.5 262.8 209.1 262.6 208.6 262.5 208.1 262.3 207.5 262.2 206.9 262 206.2 261.8 204.7 261.6 203.2 261.6 201.8 261.6 200.2 261.6 198.6 261.7 197 261.8 195.4 262 193.8 262.2 192.1L262.5 189.7C262.6 188.9 262.7 188 262.8 187.4L254.6 185.8Z" fill="#F0F0F0"/><path d="M252.3 181.6C256.5 177.7 261.6 180.1 263.5 187.6 264.6 191.6 265.3 195.7 265.7 199.9L252.6 202.4C250.2 195.2 248 185.6 252.3 181.6Z" fill="#E0E0E0"/><path d="M256.4 189.8C255.5 188.9 252.8 192.7 251.1 197.3 251.5 199.1 252 200.8 252.6 202.4L260.5 200.9C259.8 196.2 258.5 191.7 256.4 189.8Z" opacity="0.1"/><path d="M275.5 212.7 278.6 212.4 277.1 218.4C277.1 218.4 271.8 219.1 271.5 216.5L272.3 215.1C272.9 213.9 274.1 213.1 275.5 212.7Z" fill="#F0F0F0"/><path d="M282 213.5 282.2 219 277.1 218.5 278.6 212.4Z" fill="#F0F0F0"/><path d="M252.8 177.6 246.5 175.8 238.4 175.3C235.9 175.1 233.6 176.7 232.8 179.1 231.2 183.8 229.7 190.5 228.6 196.4 227.3 203 226.6 212.8 226.4 221.8L256.5 222.2C257.4 203.5 260 192.4 261.1 186.3 261.6 183.8 260.3 181.4 258.1 180.3L252.8 177.6Z" fill="#E0E0E0"/><path d="M228.6 196.3C229.5 191.7 230.6 186.5 231.8 182.2 237.2 181.4 239.6 193.2 238 199 236.3 204.8 227.9 201.2 227.9 201.2 228.1 199.4 228.4 197.8 228.6 196.3Z" opacity="0.1"/><path d="M255.5 181.4C255.3 182.2 254.5 183 251.5 182.5 251.3 182.5 251 182.4 250.8 182.3 248.2 181.6 245.9 180.2 244.2 178.3 243.2 177.3 243.5 176.6 244.4 175.6 244.5 175.5 244.6 175.4 244.7 175.3 246.2 173.5 247.1 171.2 247.7 168.8 247.9 168.1 248 167.4 248.1 166.7 248.2 166.3 248.2 165.9 248.2 165.5 248.2 165.1 248.3 164.8 248.3 164.5L248.6 165 249.2 166 250.8 168.5 255.4 170C255.3 170.1 254.8 171 254.4 172.2 254.3 172.6 254.1 173 254 173.4 253.9 173.8 253.8 174.2 253.7 174.7 253.5 175.9 253.4 177.1 253.6 178 253.7 178.7 254.1 179.2 254.6 179.6 254.6 179.6 254.7 179.6 254.7 179.7 255.3 180.1 255.6 180.8 255.5 181.4Z" fill="#F0F0F0"/><path d="M255.6 173.1C255.5 173.1 255.5 173.1 255.6 173.1 255.5 173.3 255.5 173.3 255.4 173.4 255 173.4 254.6 173.5 254.1 173.4 254 173.8 253.9 174.2 253.8 174.7 253.1 174.2 252.4 173.6 251.9 172.9L251.9 172.9C251.4 172.3 251.1 171.6 251.1 170.9 251.1 170.4 251.1 169.9 251.1 169.4 251.1 169.3 251.1 169.2 251.2 169.1L254.4 172.1 254.6 172.2 255.6 173.1Z" opacity="0.1"/><path d="M257 163.5C258.9 158.2 257.9 155.5 260 152.5 261.2 151.7 263.9 153.8 262.9 158.2 262 162.6 257 163.5 257 163.5Z" fill="#E0E0E0"/><path d="M262.4 166.9C261.6 170.5 258.6 173 255.4 173.4 255 173.4 254.6 173.5 254.1 173.4 253.3 173.4 252.6 173.2 251.9 172.9L251.9 172.9C251.1 172.6 250.3 172.1 249.6 171.4 248.7 170.6 248.1 169.7 247.7 168.8 247.5 168.3 247.3 167.8 247.1 167.3 246.9 166.6 246.7 165.8 246.6 164.9 246.5 163.8 246.3 162.6 246.2 161.3 246.2 160.7 246.1 160.2 246.1 159.6 246 158.4 246.1 157.2 246.5 156.1 246.8 155.3 247.1 154.6 247.6 154 247.8 153.8 247.9 153.6 248.1 153.4 250.2 151 253.6 150 256.8 151.1 258 151.5 259 152.2 259.8 153.1 260.2 153.5 260.5 154 260.8 154.5 261.6 155.7 262.1 157.2 262.4 158.7 262.5 159 262.5 159.3 262.6 159.6 262.6 159.6 262.6 159.6 262.6 159.6 263 162.1 262.9 164.8 262.4 166.9Z" fill="#F0F0F0"/><path d="M246.1 164.6 249.5 166 249.2 160.9 251.5 159.1 254 154C254 154 247 153 245 153 244.3 153 242.1 155.2 241.8 156.1 241.1 158.5 242 161.1 243.8 162.8 244.5 163.5 245.3 164.1 246.1 164.6Z" fill="#E0E0E0"/><path d="M242.9 151C243.1 149.4 243.6 148.4 245 147.5 246.4 146.5 250.1 145.1 251.6 142.8 251.8 143.7 251.5 145.7 248.8 147.8 250.5 146.4 250.7 147.1 251.9 146.8 253.4 146.4 254.9 145.3 255.3 143.8 255.6 145.7 254.9 146.9 253.6 148.2 255.6 147.5 257.3 146.1 258.3 144.3 258.4 145.6 258.1 146.9 257.4 148.1 259.2 147.3 260.8 145.8 261.6 143.9 261.8 145.5 262.1 147.1 261.9 148.8 261.7 150.4 261 152 259.7 153 259 153.5 258.1 153.8 257.3 154 254 155 250.5 155.5 247.1 155.7 244.6 155.7 242.6 153.6 242.9 151Z" fill="#E0E0E0"/><path d="M243.9 164C244.2 165.3 245 166.3 246.1 167.1 247.5 168 248.8 166.5 248.7 164.9 248.6 163.4 247.5 161.4 246 161.2 244.4 160.9 243.4 162.4 243.9 164Z" fill="#F0F0F0"/><path d="M255.2 161.4C255.2 161.9 255.4 162.3 255.8 162.3 256.1 162.3 256.3 161.9 256.4 161.5 256.4 161 256.2 160.6 255.8 160.6 255.5 160.6 255.2 160.9 255.2 161.4Z" fill="#E0E0E0"/><path d="M260.7 161.7C260.7 162.2 260.9 162.6 261.3 162.6 261.6 162.6 261.9 162.2 261.9 161.8 261.9 161.3 261.7 160.9 261.3 160.9 260.9 160.9 260.7 161.2 260.7 161.7Z" fill="#E0E0E0"/><path d="M254.2 159.7C254.2 159.7 254.1 159.7 254.1 159.6 254 159.5 254 159.3 254.1 159.2 254.7 158.5 255.5 158.1 256.4 158.2 256.6 158.2 256.7 158.4 256.6 158.5 256.6 158.5 256.6 158.5 256.6 158.5 256.6 158.7 256.4 158.8 256.3 158.7 255.6 158.7 254.9 159 254.5 159.5 254.4 159.7 254.3 159.7 254.2 159.7Z" fill="#E0E0E0"/><path d="M260.7 158.6C260.7 158.6 260.7 158.5 260.7 158.5 260.7 158.3 260.9 158.2 261 158.2 261.9 158.3 262.7 158.8 263.2 159.6 263.3 159.7 263.2 159.9 263.1 160 263 160.1 262.8 160 262.7 159.9 262.3 159.3 261.7 158.9 261 158.9 260.9 158.7 260.8 158.7 260.7 158.6Z" fill="#E0E0E0"/></g><g><path d="M254.2 224.9 237.5 222.4C237.5 222.4 237 222 238.1 221.9 239.3 221.8 254 222 254 222L254.2 224.9Z" fill="#F0F0F0"/><path d="M254.2 224.9 237.9 222.4C237.9 222.4 237.4 222 238.5 221.9 239.7 221.8 254 222 254 222L254.2 224.9Z" fill="#F0F0F0"/><path d="M254.2 224.9 237.9 222.4C237.9 222.4 237.4 222 238.5 221.9 239.7 221.8 254 222 254 222L254.2 224.9Z" fill="#FFFFFF" opacity="0.2"/></g><g><path d="M250.5 216.9 253.1 217.7 249.3 222.9C249.3 222.9 243.8 220.9 245 218.5L246.4 217.7C247.6 217.1 249.1 216.4 250.5 216.9Z" fill="#F0F0F0"/><path d="M255.4 221.4 252.8 224 249.4 222.9 253.1 217.7Z" fill="#F0F0F0"/><g><path d="M236.4 194C234.5 198.9 233.5 201.3 235.4 204 237.3 206.7 247.4 214.5 249.4 217.3 248.2 218.1 246.9 219 245.7 219.8 241.6 217.2 237.5 214.7 233.3 212.2 230.3 210.4 227.1 208.4 225.6 205.2 223.5 200.6 225.1 196.4 228 190.8 230.5 190.5 236.4 194 236.4 194Z" fill="#F0F0F0"/></g></g></g><path d="M236.7 175.3C242.4 174.5 245.1 179.4 242.4 186.7 241 190.6 239.2 194.4 237.1 198L224.9 192.5C227.1 185.2 230.9 176.1 236.7 175.3Z" fill="#E0E0E0"/></g></g><g><rect x="252.3" y="247.9" width="3.5" height="52.1" fill="#E0E0E0"/><g><path d="M266.2 247.9 225.6 247.9 225.6 246.5C225.6 243.7 227.8 241.5 230.6 241.5L266.2 241.5 266.2 247.9Z" fill="#F0F0F0"/><rect x="229.6" y="247.9" width="3.5" height="52.1" fill="#E0E0E0"/><rect x="241.9" y="247.9" width="3.5" height="52.1" fill="#F0F0F0"/><rect x="262.4" y="247.9" width="3.5" height="52.1" fill="#F0F0F0"/></g></g></g><g><g><rect x="177.7" y="247.6" width="3.5" height="52.1" fill="#E0E0E0"/><g><path d="M191.6 247.6 151 247.6 151 246.2C151 243.4 153.2 241.2 156 241.2L191.6 241.2 191.6 247.6Z" fill="#F0F0F0"/><rect x="155" y="247.6" width="3.5" height="52.1" fill="#E0E0E0"/><rect x="167.2" y="247.6" width="3.5" height="52.1" fill="#F0F0F0"/><rect x="187.7" y="247.6" width="3.5" height="52.1" fill="#F0F0F0"/></g></g><g><g><g><g><g id="Character--inject-2_3_"><path d="M209.1 297.2 214.7 297.6 217.6 284.7 212 284.3Z" fill="#F0F0F0"/><path d="M215.7 295.4 209.5 294.2C209.3 294.1 209.1 294.3 209 294.5 209 294.5 209 294.5 209 294.5L207.8 299.4C207.7 299.9 208 300.5 208.6 300.6 210.8 301 211.7 301 214.5 301.4 216.2 301.6 220.3 302.1 222.6 302 225 302 224.9 299.6 223.9 299.4 221.5 298.9 218 297.5 216.7 295.9 216.3 295.7 216 295.5 215.7 295.4Z" fill="#E0E0E0"/><path d="M212 284.4 217.6 284.7 216.2 290.9 210.6 290.4Z" opacity="0.1"/><path d="M182.6 222.2C182.6 222.2 225 227.7 225 243.9 223 268 217.8 288.3 217.8 288.3L210.4 286.3C210.4 286.3 208.6 260.1 211.6 246.9 200.3 243.5 167.7 243.4 164.3 233.9 161.6 226.1 163.1 221.9 163.1 221.9L182.6 222.2Z" fill="#E6E6E6"/><path d="M207.1 288.3 219.1 289.9 220.7 285.6 207.5 283.7Z" fill="#E0E0E0"/><path d="M218.6 295.5C218.3 295.3 217.6 295.4 217 295.6 216.8 295.7 216.6 295.7 216.4 295.8 216.2 295.9 216 296 216 296 216 296 215.9 296 215.9 296.1 215.9 296.1 215.9 296.1 215.9 296.1 215.9 296.1 215.9 296.2 215.9 296.2 215.9 296.2 215.9 296.2 215.9 296.2 215.9 296.2 215.9 296.2 215.9 296.2L215.9 296.2C216.3 296.4 216.8 296.6 217.3 296.7L217.3 296.7C217.7 296.8 218 296.8 218.4 296.6 218.6 296.4 218.7 296.2 218.7 295.9 218.8 295.8 218.8 295.6 218.6 295.5ZM218.4 296.4C218.1 296.6 217.6 296.5 217 296.3 216.8 296.2 216.6 296.2 216.4 296.1 216.5 296.1 216.6 296 216.7 296 217.4 295.8 218.2 295.6 218.5 295.7 218.6 295.8 218.6 295.8 218.6 295.9 218.6 296.1 218.5 296.3 218.4 296.4Z" fill="#F0F0F0"/><path d="M217.4 293.9C217.2 293.8 217 293.9 216.8 294 216.4 294.3 216.2 295 216 295.5 215.9 295.8 215.9 296 215.9 296.1 215.9 296.1 215.9 296.1 215.9 296.1 215.9 296.1 215.9 296.2 215.9 296.2 215.9 296.2 215.9 296.2 215.9 296.2 215.9 296.2 215.9 296.2 215.9 296.2 215.9 296.2 215.9 296.2 215.9 296.2L215.9 296.2 216 296.2C216.1 296.1 216.3 296.1 216.5 295.9 216.6 295.8 216.8 295.7 216.9 295.5 217.3 295.1 217.7 294.6 217.7 294.3 217.8 294.2 217.6 294 217.4 293.9ZM216.4 295.8C216.3 295.8 216.3 295.9 216.2 295.9 216.2 295.8 216.2 295.8 216.2 295.7 216.3 295.2 216.5 294.5 216.9 294.2 217 294.1 217.1 294.1 217.2 294.1 217.2 294.1 217.2 294.1 217.3 294.1 217.5 294.2 217.5 294.3 217.5 294.3 217.5 294.8 216.9 295.4 216.4 295.8Z" fill="#F0F0F0"/><path d="M191.2 301.6 196.5 302.4 198.5 289.3 193.1 288.5Z" fill="#F0F0F0"/><path d="M196.9 300.8 190.6 300.1C190.4 300.1 190.2 300.2 190.1 300.4L189.2 305.3C189.1 305.8 189.5 306.3 190.1 306.4 192.3 306.6 193.4 306.6 196.1 306.9 197.8 307.1 201.1 307.6 203.5 307.5 205.9 307.4 205.7 305.1 204.7 304.9 202.3 304.5 199.2 302.6 197.8 301.1 197.6 301 197.3 300.9 196.9 300.8Z" fill="#E0E0E0"/><path d="M200.1 301.2C200.1 301 200 300.9 199.8 300.8 199.5 300.6 198.8 300.8 198.3 301 198.1 301.1 197.9 301.2 197.7 301.2 197.5 301.3 197.3 301.4 197.2 301.4 197.2 301.4 197.1 301.4 197.1 301.5 197.1 301.5 197.1 301.6 197.1 301.6 197.1 301.7 197.1 301.7 197.2 301.7 197.2 301.7 197.2 301.7 197.2 301.7 197.6 301.9 198.1 302 198.6 302.1 198.6 302.1 198.6 302.1 198.7 302.1 199.1 302.2 199.5 302.1 199.8 301.9 200.1 301.7 200.2 301.4 200.1 301.2ZM199.7 301.7C199.5 301.9 199 301.9 198.3 301.7 198.1 301.7 197.9 301.6 197.7 301.5 197.7 301.5 197.7 301.5 197.7 301.5 197.7 301.5 197.7 301.5 197.8 301.5 197.9 301.5 198 301.4 198 301.4 198.7 301.1 199.4 300.8 199.7 301 199.8 301 199.8 301.1 199.8 301.2 199.9 301.4 199.8 301.5 199.7 301.7Z" fill="#F0F0F0"/><path d="M198.5 299.3C198.3 299.2 198.1 299.3 197.9 299.4 197.5 299.7 197.3 300.4 197.3 300.9 197.3 301.2 197.2 301.4 197.2 301.5 197.2 301.5 197.2 301.6 197.2 301.6 197.2 301.6 197.2 301.7 197.3 301.7 197.3 301.7 197.3 301.7 197.4 301.7 197.4 301.7 197.5 301.7 197.5 301.7 197.6 301.7 197.7 301.6 197.8 301.5 197.8 301.5 197.8 301.5 197.8 301.5 197.9 301.5 197.9 301.4 198 301.3 198.1 301.2 198.3 301.1 198.4 300.9 198.8 300.5 199 300 199 299.7 198.9 299.5 198.8 299.3 198.5 299.3ZM197.7 301.2C197.6 301.3 197.6 301.3 197.5 301.3 197.5 301.2 197.5 301.1 197.5 301 197.6 300.5 197.7 299.8 198 299.5 198.1 299.4 198.2 299.4 198.3 299.4L198.4 299.4C198.6 299.4 198.6 299.5 198.6 299.6 198.7 300.1 198.2 300.8 197.7 301.2Z" fill="#F0F0F0"/><path d="M192.6 288.3 198.8 288.4 197.4 296.5 192 296.2Z" opacity="0.1"/><path d="M168.8 222.1C168.8 222.1 209.7 232.7 208.1 244.9 207.6 265.2 200.6 290.7 200.6 290.7L190.3 291C190.3 291 189.6 265.8 192.1 247.8 181.6 247.7 160.2 247 153.9 240.7 148.5 233.7 152.4 222 152.4 222L168.8 222.1Z" fill="#F0F0F0"/><path d="M188.8 294 201.1 295.2 202.3 289.9 188.8 288.9Z" fill="#E0E0E0"/></g><g><path d="M180.2 225.1 163.5 222.6C163.5 222.6 163 222.2 164.1 222.1 165.3 222 180 222.2 180 222.2L180.2 225.1Z" fill="#F0F0F0"/><path d="M180.2 225.1 163.9 222.6C163.9 222.6 163.4 222.2 164.5 222.1 165.7 222 180 222.2 180 222.2L180.2 225.1Z" fill="#F0F0F0"/><path d="M180.2 225.1 163.9 222.6C163.9 222.6 163.4 222.2 164.5 222.1 165.7 222 180 222.2 180 222.2L180.2 225.1Z" fill="#FFFFFF" opacity="0.2"/></g></g></g></g><g><path d="M206.2 215.5 208.7 216.4 206.9 222.8C205.6 222 204.5 221 203.4 219.9 202.7 219.1 202.5 218.1 202.9 217.1L203 216.8C203.6 215.7 205 215.1 206.2 215.5Z" fill="#F0F0F0"/><path d="M213.1 220 209 224.3 207 222.9 208.8 216.5Z" fill="#F0F0F0"/><g><path d="M182.6 179C183.9 182.6 185.3 186.4 186.7 190 187.4 191.8 188.1 193.6 188.9 195.4 189.7 197.2 190.4 198.9 191.2 200.6 191.6 201.4 192 202.2 192.4 202.9 193 204.1 193.9 205.2 194.9 206.1 195.6 206.7 196.3 207.3 197 207.9 200 210.3 203.2 212.7 206.2 215.3L203.6 220.4C199.6 219.3 195.6 217.7 191.9 215.8 190.9 215.3 190 214.8 189 214.1 187.9 213.4 186.9 212.7 185.9 211.8 184.9 210.8 184 209.8 183.3 208.6 182.6 207.6 182 206.6 181.4 205.7 179.3 202 177.5 198.2 175.8 194.3 174.2 190.5 172.7 186.7 171.4 182.7L182.6 179Z" fill="#E6E6E6"/><path d="M182.6 179C183.9 182.6 185.3 186.4 186.7 190 187.4 191.8 188.1 193.6 188.9 195.4 189.7 197.2 190.4 198.9 191.2 200.6 191.6 201.4 192 202.2 192.4 202.9 193 204.1 193.9 205.2 194.9 206.1 195.6 206.7 196.3 207.3 197 207.9 200 210.3 203.2 212.7 206.2 215.3L203.6 220.4C199.6 219.3 195.6 217.7 191.9 215.8 190.9 215.3 190 214.8 189 214.1 187.9 213.4 186.9 212.7 185.9 211.8 184.9 210.8 184 209.8 183.3 208.6 182.6 207.6 182 206.6 181.4 205.7 179.3 202 177.5 198.2 175.8 194.3 174.2 190.5 172.7 186.7 171.4 182.7L182.6 179Z" fill="#E0E0E0"/></g><g><path d="M156.7 175.7C148.9 176.1 148.9 182.5 148.9 182.6 148.9 189.5 151.3 224.4 151.4 226.8L182.3 227.3C182.5 207.4 184.1 189.8 183.7 180.7 183.2 178.6 181.6 177.1 179.6 176.6 178.4 176.3 177 176.1 175.5 175.9 175 175.8 174.5 175.8 173.9 175.7 169.5 175.4 165.2 175.3 160.8 175.5 160 175.5 159.1 175.6 158.3 175.6 157.8 175.6 157.2 175.6 156.7 175.7Z" fill="#E6E6E6"/><path d="M156.7 175.7C148.9 176.1 148.9 182.5 148.9 182.6 148.9 189.5 151.3 224.4 151.4 226.8L182.3 227.3C182.5 207.4 184.1 189.8 183.7 180.7 183.2 178.6 181.6 177.1 179.6 176.6 178.4 176.3 177 176.1 175.5 175.9 175 175.8 174.5 175.8 173.9 175.7 169.5 175.4 165.2 175.3 160.8 175.5 160 175.5 159.1 175.6 158.3 175.6 157.8 175.6 157.2 175.6 156.7 175.7Z" fill="#F5F5F5" opacity="0.1"/></g><g><g><path d="M170.5 172.3C173.1 172.8 175.3 174.6 177.4 176.2 177.6 176.4 177.9 176.6 178 176.9 178.1 177.1 178.1 177.4 178 177.7 177.9 178.7 178.5 181.1 178.4 182.1 177.5 181.9 176 179.7 175.9 178.8 175.3 179.9 174.5 181 173.5 181.9 173.2 182.2 172.9 182.5 172.5 182.6 171.8 182.9 169.5 181.4 167.3 180.8 164.8 180 164.1 184 163.7 183.9 162.8 183.7 157.2 176 157.5 175.1 157.8 174.2 158.5 173.6 159.1 173 159.9 172.3 160.8 171.5 161.9 171.3 162.5 171.2 166 171 168 171.2L170.5 172.3Z" fill="#FAFAFA"/></g></g><g><path d="M162.1 161.6C162.8 165.3 163.4 171.7 161.7 175.3 161.2 176.4 161.7 177.6 162.8 178.1 166.8 179.9 172.4 181.4 172.4 181.4 172.4 181.4 172.8 181 173.3 180.5 174.4 179.2 173.9 177.3 172.4 176.6 169.4 175 169.6 171.9 170.4 169L162.1 161.6Z" fill="#F0F0F0"/><path d="M165.5 164.6 170.4 168.9C170.2 169.7 170 170.5 169.9 171.3 168 171 165.5 168.9 165.3 167 165.3 166.2 165.3 165.4 165.5 164.6Z" opacity="0.1"/><path d="M158.9 154.1C159.2 160 161.8 164.5 164.8 167.6 169.2 172.3 176.6 169.7 178.1 163.7 179.5 158.4 178.8 149.6 173 147.1 168.9 145.3 161.3 146.3 159.6 150.4 159.1 151.6 158.9 152.8 158.9 154.1Z" fill="#F0F0F0"/><path d="M155.7 158.8C156 159.7 156.9 160.5 157.9 160.6 157.6 161.3 157.9 162.2 158.5 162.8 159.1 163.4 159.8 163.7 160.6 163.8 160.4 164.7 161 165.7 162 165.9 162.9 166.1 163.9 165.2 163.7 164.3 163.7 164.1 163.3 163.7 163 163.4L166.4 161.4 165.7 155.7 168.2 153.5 168.8 149.6C168.8 149.6 160.9 148.9 158.6 149 157.3 149.1 157 151 156.9 152.6 156.9 152.6 156.8 152.6 156.8 152.6 155.4 152.7 156.1 155.6 156.6 156.2 155.8 156.8 155.4 157.9 155.7 158.8Z" fill="#E0E0E0"/><path d="M159.1 160.7C159.7 162.1 160.8 163.2 162.1 163.8 163.9 164.6 165.1 163 164.8 161.1 164.5 159.4 163.2 157 161.3 157.1 159.4 157 158.5 159 159.1 160.7Z" fill="#F0F0F0"/><path d="M170.7 156.9C170.7 157.4 170.9 157.8 171.3 157.8 171.6 157.8 171.9 157.4 171.9 156.9 171.9 156.4 171.7 156 171.3 156 171 156 170.7 156.4 170.7 156.9Z" fill="#E0E0E0"/><path d="M176.2 156.9C176.2 157.4 176.4 157.8 176.8 157.8 177.1 157.8 177.4 157.4 177.4 156.9 177.4 156.4 177.2 156 176.8 156 176.4 156.1 176.2 156.5 176.2 156.9Z" fill="#E0E0E0"/><path d="M169 155.1C169.1 155.1 169.2 155.1 169.3 155 169.7 154.4 170.4 154.1 171.1 154.1 171.3 154.1 171.4 154 171.4 153.8 171.4 153.6 171.3 153.5 171.1 153.5 171.1 153.5 171.1 153.5 171.1 153.5 170.2 153.5 169.3 153.9 168.8 154.6 168.7 154.7 168.7 154.9 168.8 155 168.9 155 169 155.1 169 155.1Z" fill="#E0E0E0"/><path d="M178.5 155.1C178.6 155.1 178.6 155.1 178.7 155.1 178.8 155 178.9 154.9 178.8 154.7 178.4 153.9 177.7 153.2 176.8 153.1 176.6 153.1 176.5 153.2 176.5 153.3 176.5 153.5 176.6 153.6 176.7 153.6 176.7 153.6 176.7 153.6 176.7 153.6L176.7 153.6C177.4 153.8 178 154.2 178.3 154.9 178.3 155 178.4 155.1 178.5 155.1Z" fill="#E0E0E0"/></g><g><path d="M159.6 181.5C162.1 188.1 161.8 192.5 159.4 194.8 159.1 194 158.8 193.1 158.4 192.3 157.1 189.2 155.7 186 154.1 182.7L159.6 181.5Z" fill="#EBEBEB" opacity="0.2"/><g><path d="M178.3 218.8 184.1 219.4 180.4 225.8C180.4 225.8 175.5 224.2 176.1 221.5L178.3 218.8Z" fill="#F0F0F0"/><path d="M187.6 222.7 184.3 227.9 180.4 225.8 184.1 219.4Z" fill="#F0F0F0"/></g><path d="M158.4 179.3C159.2 180.1 159.7 181.1 159.8 182.2L159.9 183.4 160.2 186.4C160.4 188.4 160.7 190.4 161 192.3 161.5 196.1 162.4 199.8 163.5 203.4 163.7 205.3 166.9 208.2 169.8 210.8 172.7 213.4 176.1 216 179.3 218.6L176.5 223.6C174.4 222.8 172.4 222 170.5 221 168.5 220.1 166.6 219 164.7 217.9 162.7 216.7 160.8 215.4 159 214 158 213.2 157 212.3 156.1 211.3 155.5 210.7 155 210 154.6 209.2 154.3 208.7 154.2 208.5 154.1 208.2 154 207.9 153.8 207.6 153.7 207.4 152.7 205.3 151.9 203 151.2 200.8 150.5 198.6 150 196.4 149.6 194.2 149.2 192.3 148.8 184.3 148.7 181.6 148.7 181.1 148.7 180.6 148.9 180.1L149.1 179.4C149.6 177.6 151.2 176.3 153 176.2L153 176.2C154.3 176.1 155.6 176.5 156.6 177.4L158.4 179.3Z" fill="#E6E6E6"/><path d="M158.4 179.3C159.2 180.1 159.7 181.1 159.8 182.2L159.9 183.4 160.2 186.4C160.4 188.4 160.7 190.4 161 192.3 161.5 196.1 162.4 199.8 163.5 203.4 163.7 205.3 166.9 208.2 169.8 210.8 172.7 213.4 176.1 216 179.3 218.6L176.5 223.6C174.4 222.8 172.4 222 170.5 221 168.5 220.1 166.6 219 164.7 217.9 162.7 216.7 160.8 215.4 159 214 158 213.2 157 212.3 156.1 211.3 155.5 210.7 155 210 154.6 209.2 154.3 208.7 154.2 208.5 154.1 208.2 154 207.9 153.8 207.6 153.7 207.4 152.7 205.3 151.9 203 151.2 200.8 150.5 198.6 150 196.4 149.6 194.2 149.2 192.3 148.8 184.3 148.7 181.6 148.7 181.1 148.7 180.6 148.9 180.1L149.1 179.4C149.6 177.6 151.2 176.3 153 176.2L153 176.2C154.3 176.1 155.6 176.5 156.6 177.4L158.4 179.3Z" fill="#E0E0E0"/></g></g></g></g><ellipse cx="250" cy="360.7" rx="193.9" ry="11.3" id="_x3C_Path_x3E__1_" fill="#F5F5F5"/><g><g><g><g id="Character--inject-166_1_"><path d="M382.5 110.7C382.3 111.4 382.1 111.9 381.8 112.4 381.6 113 381.4 113.5 381.1 114 380.6 115.1 380.1 116.1 379.6 117.2 378.5 119.3 377.4 121.3 376.1 123.3 374.8 125.4 373.3 127.3 371.6 129.1 370.7 130.1 369.8 131 368.8 131.8 368.3 132.2 367.7 132.6 367.2 133.1L366.3 133.7 365.7 134.1C365.5 134.2 365.3 134.3 365 134.5 363.4 135.3 361.7 135.7 360 135.9 358.6 136 357.2 136 355.8 135.8 353.3 135.5 350.9 134.9 348.6 134.1 344.2 132.6 340.1 130.6 336.2 128L338.8 122.5C342.7 123.6 346.7 124.5 350.8 125.1 352.6 125.4 354.5 125.5 356.3 125.5 357 125.5 357.8 125.4 358.5 125.2 358.9 125.1 359.3 124.9 359.7 124.7 359.7 124.7 359.7 124.7 359.7 124.6L359.8 124.5 360.2 124.1C360.5 123.8 360.7 123.6 361 123.3 361.5 122.7 362.1 122.1 362.6 121.4 363.7 119.9 364.7 118.4 365.7 116.7 366.7 115 367.6 113.3 368.4 111.5 368.8 110.7 369.2 109.7 369.7 108.8L370.3 107.5 371.9 103.8 382.5 110.7Z" fill="#407BFF"/><path d="M338.4 127.2 333 127.9 333 120.7C333 120.7 338.3 121.3 340.5 124L338.4 127.2Z" fill="#FFB573"/><path d="M326.5 127.5 327.3 122.5 333.1 120.7 333.1 127.9Z" fill="#FFB573"/><g><g><path d="M439.4 312.5C439.9 311.2 440.5 310.1 441.4 309L441.4 309C441.4 309 444.8 302.5 441.4 291.7L446.2 287C447.5 286.8 448.9 287.5 449.9 288.3 450.6 289.2 451.2 289.5 451.8 290.5 453.8 293.6 458.2 300.6 458.2 300.6L457.5 301.1C456.1 299 454.5 297 452.8 295.1 451.1 293.3 451.3 296.6 452 299.4 452.7 302.2 451.1 306.7 446.5 309.8 441.2 313.6 438.8 314.9 439.4 312.5Z" fill="#263238"/><g><path d="M448 297.1C448.1 299 449.5 302.2 448 304.7 446.6 307.1 444.2 308.7 441.5 309.1 441.5 309.1 444.1 304.1 442.4 295.5 442.2 294.4 441.9 293.1 441.5 291.9 441.5 291.9 445.7 288.5 447.7 287.9L448.9 290.7C448.9 292.7 448.5 294.9 448.1 296.4 448 296.5 447.9 296.8 448 297.1Z" fill="#FFB573"/></g></g><path d="M448.9 290.6C448.9 292.6 448.5 294.8 448.1 296.3 448 296.5 448 296.8 448 297.1L444 299.1 442.5 295.5 437 282.6 444.1 279.2 447.8 287.9 448.9 290.6Z" fill="#FFB573"/><path d="M444 279.1 436.9 282.5 439.7 289.1 439.8 289.1C442.5 289.1 445.1 287.9 446.8 285.9L446.8 285.9 444 279.1Z" opacity="0.2"/></g><g><g><path d="M384.3 311C385.4 310.2 386.6 309.6 387.9 309.2L387.9 309.2C387.9 309.2 394.2 305.6 397.2 294.7L403.9 293C405.1 293.5 406.1 294.5 406.5 295.8 406.6 297 406.7 298.2 406.6 299.3 406.7 303 406.5 312.6 406.5 312.6L405.6 312.6C405.5 310.1 405.3 306.3 404.9 303.8 404.4 301.4 402.8 304.2 401.9 307 401 309.8 397.3 312.7 391.6 312.8 385.1 312.9 382.4 312.6 384.3 311Z" fill="#263238"/></g><g><path d="M403 298.4C402.3 299.8 401.4 301 400.2 302 398.9 303.1 398.7 307.5 395.6 309 393.2 310.2 390.3 310.3 387.8 309.2 387.8 309.2 392.6 306.5 395.8 298.6 396.5 296.8 396.7 294.8 396.2 292.9L393.1 280.6 401.3 279.1 404.1 293.9C404.2 296 403.8 297.4 403 298.4Z" fill="#FFB573"/><path d="M392.3 275.8 394.7 286.7 395.4 286.8C397.9 287.2 400.4 286.6 402.4 285L402.4 285 400.5 274.4 392.3 275.8Z" opacity="0.2"/></g></g><g><path d="M411.3 103.1C411.3 102.8 411.2 102.5 411.2 102.2 410.3 96.6 405 92.9 399.4 93.8L399.2 93.8C398.5 93.9 397.8 94 397.1 94.2 392.4 95.1 387.7 96.2 383.1 97.7 382.3 97.9 381.5 98.2 380.8 98.5 379.7 98.9 378.7 99.3 377.7 99.8 373 101.8 370.5 106.9 371.8 111.9 373.2 117.2 375.1 125.6 381.5 136.8 383 139.4 383.4 144.7 384.7 147.9L415.4 140.1 415.5 140.2C413.5 130.4 412.1 113.9 411.3 103.1Z" fill="#407BFF"/><g><path d="M411.3 103.1C411.3 102.8 411.2 102.5 411.2 102.2 410.3 96.6 405 92.9 399.4 93.8L399.2 93.8C398.5 93.9 397.8 94 397.1 94.2 392.4 95.1 387.7 96.2 383.1 97.7 382.3 97.9 381.5 98.2 380.8 98.5 379.7 98.9 378.7 99.3 377.7 99.8 373 101.8 370.5 106.9 371.8 111.9 373.2 117.3 376.3 123.5 381.7 137.3 382.7 139.8 383.5 144.9 384.7 147.8L415.4 140 415.5 140.1C413.5 130.4 412.1 113.9 411.3 103.1Z" fill="#FFFFFF" opacity="0.8"/></g></g><path d="M384.8 147.8C384.8 147.8 382 185.5 381.9 216 381.8 240.3 391.6 283.3 391.6 283.3 391.6 283.3 397.8 285 404.2 280.9 404.5 282.7 404.3 248.1 401.8 224.8 401.4 221.3 401.6 217.8 402.4 214.3 409.5 182.2 419 152.5 409.5 141.2L384.8 147.8Z" fill="#263238"/><path d="M400.7 170.3 413.1 162.4C412 174.5 408 189.8 404.2 206.2 400 193.6 397.7 180.3 400.7 170.3Z" opacity="0.3"/><path d="M390.4 148.5C390.4 148.5 400.4 178.8 407.3 207.9 410.7 228.9 436.2 285.6 436.2 285.6L440.1 284.7C441.9 284.3 443.6 283.3 445 282L446.3 280.7C446.3 280.7 440.3 252 434 233.2 431.5 225.6 430 217.6 429.6 209.6 428.2 179.8 425.8 150.9 414.2 141.5L390.4 148.5Z" fill="#263238"/><path d="M397.9 93.8C397.9 93.8 396.4 130.2 406.9 177 420.4 175.5 428.5 171.4 428.5 171.4 428.5 171.4 424.5 146 415.5 133.3 413.6 124.2 414 104.7 412.8 97.6 412.4 95 410.3 93.1 407.7 92.9 405.1 92.7 401.5 93.2 397.9 93.8Z" fill="#407BFF"/><path d="M383.1 97.2C383.1 97.2 382.2 114.5 396.3 178.5 392 181 382.6 180.7 382.6 180.7 382.6 180.7 381.7 159.2 382.4 142 382.7 133.6 376.6 132.7 372.7 123.6 370.5 113 371.1 104.3 372.6 103 374.9 100.8 378.8 97.9 383.1 97.2Z" fill="#407BFF"/><path d="M397.7 93.7C397.7 93.7 397.8 108.6 398.5 119.4 399.3 111.7 401.6 104.2 401.4 101.7 400.6 101.3 399.8 100.9 399.1 100.4 399.9 99.6 400.8 99 401.8 98.4 401.8 97.3 401.8 93.3 401.6 92.9 399.5 93.4 397.7 93.7 397.7 93.7Z" opacity="0.7"/><path d="M383.2 97C383.2 97 383.1 106.3 385.6 122.7 382.9 116 379.5 109.5 379.6 107 380.8 105.9 381.8 104.7 381.8 104.7 381 104.2 380.1 103.9 379.2 103.8 379.1 101.9 379.2 100 379.4 98 381.5 97.4 383.2 97 383.2 97Z" opacity="0.7"/><g><path d="M411.8 95.1C413.5 96.9 415.3 98.9 417.1 100.8 418.9 102.7 420.7 104.6 422.5 106.4 424.3 108.2 426.2 109.9 428 111.5 428.9 112.3 429.8 113 430.6 113.5 431 113.8 431.4 114 431.7 114.2 432 114.4 432.2 114.4 432.1 114.4L430.5 114.4C431.5 114.3 432.4 113.9 433.2 113.3 434.5 112.3 435.7 111.2 436.8 110 438 108.6 439.2 107.2 440.3 105.7 441.4 104.2 442.5 102.6 443.6 101L449.3 103.3C448.8 105.4 448.1 107.5 447.3 109.5 446.5 111.5 445.5 113.5 444.4 115.4 443.2 117.5 441.7 119.4 440.1 121.1 439.1 122.1 438 122.9 436.8 123.7 435.4 124.6 433.8 125.2 432.2 125.5L431.5 125.6 430.6 125.5C429.4 125.3 428.3 125 427.2 124.5 426.4 124.2 425.6 123.8 424.8 123.3 423.4 122.5 422.1 121.7 420.9 120.7 418.6 119 416.4 117.1 414.2 115.2 412.1 113.3 410.1 111.3 408.2 109.4 406.3 107.4 404.4 105.4 402.6 103.2L411.8 95.1Z" fill="#407BFF"/><path d="M444.4 104.9C443.1 102.7 442.7 100 443.2 97.5L452.2 98.6 449.3 103.7 444.4 104.9Z" fill="#FFB573"/><path d="M452.1 98.6 443.1 97.4 447 92.2 453.6 94.7Z" fill="#FFB573"/></g></g><g><path d="M382.4 99.6C381.8 101.7 381.1 105.3 382 106.7 382.1 105.9 383.5 103.2 384.8 104.3 385.2 104.7 385.6 105 385.9 105.5 386.7 106.6 387.5 107.8 388.3 108.9 388.6 109.4 389.1 109.9 389.7 109.9 390.4 109.9 390.9 109.2 391.2 108.5 391.9 107.2 392.6 105.9 393.2 104.5 393.7 103.6 394.2 102.6 395 102.1 395.9 101.5 399.1 102.4 399.7 103.3 399.7 100.9 400 95.9 399.7 94.6 399.4 93.3 396.6 91.5 395.2 91.3 394.3 91.2 393.4 91.5 392.5 91.9 388.9 93.7 383.6 95.2 382.4 99.6Z" fill="#FFFFFF"/><g><path d="M392.9 85C393.5 88.8 394.8 92.7 397.2 94.1 397.2 94.1 399.8 97 392 103.4 390.7 104.5 388.8 105.8 387.5 104.6 384.8 102.1 384.7 99.7 385 98.2 385.2 97.4 385.7 96.6 386.3 96 388 94.2 386.8 92.4 384.8 86.5L388.4 84C389.2 82.9 390.8 82.6 391.9 83.5 392.4 83.9 392.7 84.4 392.9 85Z" fill="#FFB573"/><path d="M388.4 84C389.2 82.9 390.8 82.6 391.9 83.5 392.3 83.8 392.6 84.2 392.8 84.7 391.6 87.8 389.5 90.5 386.7 92.4 386.5 90.9 385.2 89.3 384.5 87.9 384.3 87.4 384.9 87 384.6 86.5L388.4 84Z" opacity="0.2"/></g></g><g><path d="M387 57.9C385.1 56.4 382.4 56.2 380.1 57 377.8 57.8 375.9 59.5 374.3 61.3 371.5 64.5 369.4 68.3 368.5 72.5 367.6 76.7 368 81.1 369.9 84.9 370.8 86.7 372.1 88.4 373.9 89.4 376.7 91 380.3 90.5 383.1 88.9 385.9 87.3 387.8 84.6 389.3 81.7 391.2 78 394.1 68.8 390.4 62.1 388.5 59.1 387 57.9 387 57.9Z" fill="#263238"/></g><path d="M394.1 84.3C390.8 85.9 389 87.2 388.2 86.6 387.1 85.8 389.9 81.5 390 80.2 390.3 77.4 391.8 74.7 394.2 73.2 396.5 71.7 399.7 71.3 402.2 72.6 403.6 73.3 404.9 74.7 405.2 76.3 405.6 77.9 404.2 79.1 403.1 80.1 400.6 82.3 397.1 82.8 394.1 84.3Z" fill="#263238"/><path d="M394.8 70.7C395.1 78.5 395.4 81.8 391.9 86.2 386.7 92.9 377.3 91.7 374.7 84.2 372.4 77.4 372.3 65.8 379.5 61.8 386.6 57.9 394.5 62.9 394.8 70.7Z" fill="#FFB573"/><path d="M392 71.1C390.5 72 391.1 79.3 394.9 78.8 398.6 78.2 397 68.2 392 71.1Z" fill="#263238"/><path d="M397.2 77.7C397 79.2 396.2 80.6 395 81.5 393.4 82.7 391.9 81.5 391.8 79.6 391.7 77.9 392.3 75.2 394.2 74.7 396.1 74.2 397.4 75.9 397.2 77.7Z" fill="#FFB573"/><path d="M386.1 57.2C375.6 59.7 376.8 66.7 386.3 70.6 391.5 72.8 398.7 78 395 87.5 393.8 90.5 410.5 78.6 405.2 72.5 394.9 60.8 394.1 53.9 386.1 57.2Z" fill="#263238"/><path d="M382.2 74.6C382.3 75.2 382 75.8 381.6 75.8 381.2 75.8 380.8 75.4 380.8 74.7 380.7 74.1 381 73.5 381.4 73.5 381.8 73.5 382.2 74 382.2 74.6Z" fill="#263238"/><path d="M375.2 75.4C375.3 76 375 76.6 374.6 76.6 374.2 76.6 373.8 76.2 373.8 75.5 373.7 74.9 374 74.3 374.4 74.3 374.8 74.3 375.2 74.8 375.2 75.4Z" fill="#263238"/><path d="M374.6 74.4 373.1 74.1C373 74.1 373.9 75.2 374.6 74.4Z" fill="#263238"/><path d="M377.6 76.1C377.3 77.8 376.7 79.4 375.9 81 376.7 81.4 377.6 81.4 378.4 81L377.6 76.1Z" fill="#ED893E"/><path d="M384.2 71.7C384.1 71.7 384.1 71.7 384 71.6 383.4 70.9 382.5 70.6 381.6 70.6 381.4 70.6 381.2 70.5 381.2 70.3 381.2 70.3 381.2 70.3 381.2 70.3 381.2 70.1 381.3 69.9 381.5 69.9 382.7 69.7 383.8 70.2 384.6 71.1 384.7 71.3 384.7 71.5 384.6 71.6 384.5 71.8 384.4 71.8 384.2 71.7Z" fill="#263238"/><path d="M372.1 72.4 372.1 72.4C371.9 72.2 372 71.9 372.1 71.8 373.1 71.1 374.3 70.9 375.4 71.3 375.6 71.4 375.7 71.6 375.6 71.8 375.5 72 375.3 72.1 375.1 72 374.2 71.7 373.2 71.8 372.5 72.4 372.4 72.5 372.3 72.5 372.1 72.4Z" fill="#263238"/><path d="M381.6 73.6 380.1 73.3C380 73.3 380.9 74.4 381.6 73.6Z" fill="#263238"/><g><path d="M378.4 82.8C378.4 82.8 380.3 81.9 386.1 81 385.8 83.1 384.8 84.8 381.9 85.3 378.9 85.7 378.4 82.8 378.4 82.8Z" fill="#263238"/><path d="M383 83.5C381.9 83.6 380.8 84.1 380 85 380.6 85.3 381.3 85.4 381.9 85.3 383 85.2 384.1 84.7 384.9 83.8 384.3 83.5 383.6 83.4 383 83.5Z" fill="#FF5652"/><path d="M378.7 82.7C378.9 83.2 379.3 83.5 379.8 83.5 381.5 83.2 383.2 82.8 384.8 82.2 385.3 82.1 385.7 81.6 385.9 81 383.4 81.4 381 81.9 378.7 82.7Z" fill="#FFFFFF"/></g></g></g></g><g><g><g><path d="M344.4 168.9 314.6 168.9C312 168.9 309.8 166.8 309.5 164.2L307.8 144.7C307.6 142.1 309.5 140 312.1 140L341.9 140C344.5 140 346.7 142.1 347 144.7L348.7 164.2C348.9 166.8 347 168.9 344.4 168.9Z" fill="#407BFF"/><g><g><path d="M343.4 168.9 313.6 168.9C311 168.9 308.8 166.8 308.5 164.2L306.8 144.7C306.6 142.1 308.5 140 311.1 140L340.9 140C343.5 140 345.7 142.1 346 144.7L347.7 164.2C347.9 166.8 346 168.9 343.4 168.9Z" fill="#263238"/></g><path d="M343.4 168.9 313.6 168.9C311 168.9 308.8 166.8 308.5 164.2L306.8 144.7C306.6 142.1 308.5 140 311.1 140L340.9 140C343.5 140 345.7 142.1 346 144.7L347.7 164.2C347.9 166.8 346 168.9 343.4 168.9Z" fill="#FFFFFF" opacity="0.7"/></g></g><path d="M329.4 155.9C329.6 157.6 328.3 159 326.6 159 324.9 159 323.4 157.6 323.2 155.9 323 154.2 324.3 152.8 326 152.8 327.7 152.8 329.2 154.1 329.4 155.9Z" fill="#FFFFFF"/></g><g><g><path d="M351.2 168.9 349.5 168.9 349.5 139.7C349.5 126.4 354.2 113.5 362.7 103.3L370.9 93.5 372.2 94.6 364 104.4C355.8 114.3 351.2 126.9 351.2 139.7L351.2 168.9Z" fill="#263238"/></g><path d="M373 95.4C373 97.2 371.5 98.7 369.7 98.7 367.9 98.7 366.4 97.2 366.4 95.4 366.4 93.6 367.9 92.1 369.7 92.1 371.6 92.1 373 93.6 373 95.4Z" fill="#263238"/></g><g id="Cabinet--inject-166_2_"><path d="M303.4 172 397.2 172 389.9 312.5 310.7 312.5Z" fill="#407BFF"/><path d="M303.4 172 397.2 172 389.9 312.5 310.7 312.5Z" fill="#FFFFFF" opacity="0.5"/><path d="M361.1 172 397.2 172 389.9 312.5 359.4 312.5Z" opacity="0.1"/><path d="M318.6 303.6 351.1 303.6 351.2 184.2 313.7 184.2 318.6 303.6Z" fill="#407BFF"/><path d="M399.8 172 300.8 172C299.1 172 297.7 170.6 297.7 168.9L297.7 168.9C297.7 167.2 299.1 165.8 300.8 165.8L399.8 165.8C401.5 165.8 402.9 167.2 402.9 168.9L402.9 168.9C402.9 170.6 401.5 172 399.8 172Z" fill="#407BFF"/><path d="M399.8 172 358.5 172C356.8 172 355.4 170.6 355.4 168.9L355.4 168.9C355.4 167.2 356.8 165.8 358.5 165.8L399.8 165.8C401.5 165.8 402.9 167.2 402.9 168.9L402.9 168.9C402.9 170.6 401.5 172 399.8 172Z" opacity="0.3"/></g><rect x="297.7" y="312.5" width="154.3" height="24.9" fill="#407BFF"/><rect x="372" y="312.7" width="80" height="24.8" opacity="0.3"/></g><g><g><g id="_x3C_Group_x3E__2_"><g><path d="M81.8 160.9C81.7 161.5 82 162.1 82.4 162.1 82.8 162.2 83.2 161.7 83.3 161.1 83.4 160.5 83.1 159.9 82.7 159.9 82.3 159.8 81.9 160.3 81.8 160.9Z" fill="#263238"/><path d="M81.8 161.5C82.3 163.5 83 165.4 84 167.2 83.1 167.7 81.9 167.7 81 167.3L81.8 161.5Z" fill="#A02724"/><path d="M80.1 157.2C80.2 157.2 80.3 157.2 80.3 157.2 81.1 156.7 82.1 156.7 83 157.1 83.2 157.2 83.4 157.1 83.5 156.9 83.6 156.7 83.5 156.5 83.4 156.4 82.3 155.9 81.1 155.9 80 156.5 79.8 156.6 79.8 156.8 79.9 157 79.9 157.1 80 157.1 80.1 157.2L80.1 157.2Z" fill="#263238"/><path d="M61.9 165.9C63 171.6 64.1 182 60.1 185.8 60.1 185.8 61.7 191.6 72.2 191.6 83.8 191.6 77.8 185.8 77.8 185.8 71.5 184.3 72.5 179.6 73.6 175.1L61.9 165.9Z" fill="#FFB573"/><path d="M61.3 156.6C60.7 164.3 59.9 168.8 63.2 173.2 68.1 179.9 80.6 178.5 82.3 169.4 83 160.6 84.2 152.4 77.2 148.2 72.2 145.2 65.7 146.9 62.8 151.9 61.9 153.4 61.4 155 61.3 156.6Z" fill="#FFB573"/><path d="M81.2 158.6C80.3 160 79.2 161.3 77.8 162.2 77 162.7 76.2 163.1 75.4 163.3 74.8 163.4 73.4 162.9 73.3 163.4 71.8 174.2 69.7 174.5 69.7 174.5 67.3 175.1 64.8 174.3 62.8 172.8 60.8 171.4 59.4 169.3 58 167.3 56.5 165 55.1 162.6 54.5 159.9 53.8 157.2 54 154.3 55.4 152 56.8 149.7 59.5 148.1 62.2 148.6 61.8 148.3 61.3 148 60.9 147.8 59.9 147.4 58.6 147.1 57.4 147.2 58.3 146.2 59.9 145.9 61.1 146.4 61.9 146.7 62.6 147.4 62.9 148.2 65.1 146.6 70.2 144.5 74.8 145.1 86.2 146.8 82.8 156 81.2 158.6Z" fill="#263238"/><path d="M70.8 163.9C71.4 165.7 72.5 167.3 74.1 168.4 76.2 169.8 77.6 168.3 77.4 166 77.2 163.9 75.9 160.7 73.6 160.2 71.5 159.7 70.2 161.7 70.8 163.9Z" fill="#FFB573"/></g><g><path d="M88.3 215.4C87.6 212.8 87.1 210.1 86.5 207.5 86 204.8 85.5 202.2 85.1 199.5L96.1 197.8C97 202.8 99 208.2 100.1 213.1 101.2 218.1 103.9 229.9 104.3 231 104.5 231.6 104.8 232.1 105 232.6L108.9 236.1 97.6 239.2C97.1 239.4 96.5 239.1 96.2 238.6 94.9 236.7 91.6 230.1 88.3 215.4Z" fill="#FFB573"/><g><g><path d="M119.2 259 120 262.1 122.4 265 130.7 263.3C130.7 263.3 130.1 261 129.1 259 128.9 258.7 128.7 258.4 128.4 258.2L123 254.7 119.2 259Z" fill="#FFB573"/><path d="M125.6 267.2 131.7 265.9 130.6 263.3 122.4 265Z" fill="#FFB573"/></g><path d="M120.6 262.9C121.1 263.4 120.6 262.2 121.2 262.4 123.2 263.2 125.5 257 124.1 255.4 120.5 251.4 115.2 236.9 103.1 233.4 101.5 233 99.8 233.3 98.4 234.1 97 234.9 95.9 236.5 96.1 238.1 96.3 240.6 115.1 256.7 120.6 262.9Z" fill="#FFB573"/></g></g><path d="M82.2 193.1C78.9 199.6 85.7 221.6 85.7 221.6L102.1 217C102.1 217 101.9 206.1 98 197.7 93.6 188 85.9 186 82.2 193.1Z" fill="#407BFF"/><g><path d="M58.1 212.7C57.4 210.1 56.9 207.4 56.3 204.8 55.8 202.1 55.3 199.5 54.9 196.8L65.9 195.1C66.8 200.1 68.8 205.5 69.9 210.4 71 215.4 73.7 227.2 74.1 228.3 74.3 228.9 74.6 229.4 74.8 229.9L78.7 233.4 67.4 236.5C66.9 236.7 66.3 236.4 66 235.9 64.6 234 61.4 227.5 58.1 212.7Z" fill="#FFB573"/><g><g><path d="M88.9 256.3 89.7 259.4 92.1 262.3 100.4 260.6C100.4 260.6 99.8 258.3 98.8 256.3 98.6 256 98.4 255.7 98.1 255.5L92.7 252 88.9 256.3Z" fill="#FFB573"/><path d="M95.4 264.6 101.5 263.3 100.4 260.7 92.1 262.3Z" fill="#FFB573"/></g><path d="M90.3 260.3C90.8 260.8 90.3 259.6 90.9 259.8 92.9 260.6 95.2 254.4 93.8 252.8 90.2 248.8 84.9 234.3 72.8 230.8 71.2 230.4 69.5 230.7 68.1 231.5 66.7 232.3 65.6 233.9 65.8 235.5 66.1 238 84.9 254.1 90.3 260.3Z" fill="#FFB573"/></g></g><g><path d="M57.6 187.8C56.8 186 55.8 183.9 57.7 183.2 59.8 182.5 71.2 181.7 75.2 183.1 77.4 183.7 78.6 185.9 78.1 188.1 78.1 188.1 78.1 188.2 78.1 188.2L57.6 187.8Z" fill="#263238"/><path d="M91.3 197.3C92.9 205.3 89.2 224.3 89.2 255.3L47.6 255.3C47.3 249 51.9 234.2 46.2 204.6 46 203.6 43.8 199 46.6 191.6 48.9 185.6 55 186.1 59.1 185.8 65 185.5 70.9 185.5 76.8 185.8 79.2 186 83 187.5 85.4 188.4 89.2 189.8 90.6 193.4 91.3 197.3Z" fill="#407BFF"/><path d="M80.3 205.2C81.4 211.8 85.7 220.5 90 225.5 90.2 221.8 90.5 217.9 90.5 214.9L80.3 205.2Z" opacity="0.2"/></g><path d="M82.2 193.1C78.9 199.6 85.7 221.6 85.7 221.6L102.1 217C102.1 217 101.9 206.1 98 197.7 93.6 188 85.9 186 82.2 193.1Z" fill="#407BFF"/><g><path d="M125.5 348.9 133.3 348.9 135.1 330.8 127.3 330.8Z" fill="#FFB573"/><path d="M135 331.9 134.1 341.2 126.3 341.2 127.2 331.9Z" opacity="0.2"/></g><g><path d="M94.8 348.9 102.6 348.9 106.5 330.8 98.8 330.8Z" fill="#FFB573"/><g opacity="0.2"><path d="M98.6 331.8 106.4 331.8 104.3 341.1 96.6 341.1Z"/></g></g><path d="M133.8 345.4 125.3 345.4C125 345.4 124.7 345.7 124.6 346.1L123.1 355C123 355.8 123.3 356.6 123.9 356.8 124 356.8 124.1 356.8 124.2 356.8 127.3 356.7 131.7 356.5 135.5 356.5 140 356.5 143.9 356.8 149.2 356.8 152.4 356.8 153.3 352.6 152 352.2 145.9 350.5 140.9 350.3 135.7 346.1 135.1 345.7 134.4 345.4 133.8 345.4Z" fill="#263238"/><g><path d="M139.9 348.3C140.9 348.3 141.9 348.2 142.2 347.7 142.4 347.5 142.4 347.1 142.2 346.9 142.1 346.7 141.9 346.5 141.6 346.5 140.3 346.1 137.6 347.7 137.5 347.8 137.4 347.8 137.4 347.9 137.4 348 137.4 348.1 137.5 348.1 137.5 348.1 138.3 348.2 139.1 348.3 139.9 348.3ZM141.2 346.8C141.3 346.8 141.4 346.8 141.6 346.8 141.8 346.8 141.9 346.9 142 347.1 142.1 347.3 142.1 347.4 142 347.5 141.6 348 139.7 348 138.2 347.8 139.1 347.2 140.1 346.9 141.2 346.8Z" fill="#407BFF"/><path d="M137.6 348 137.6 348C138.6 347.6 140.5 345.9 140.3 345 140.3 344.8 140.1 344.5 139.6 344.5 139.2 344.5 138.9 344.6 138.6 344.8 137.6 345.6 137.4 347.7 137.4 347.8 137.4 347.9 137.4 348 137.6 348 137.5 348 137.6 348 137.6 348ZM139.5 344.9 139.6 344.9C139.9 344.9 140 345.1 140 345.1 140.1 345.6 138.8 347 137.9 347.5 138 346.6 138.3 345.8 138.9 345.1 139 345 139.2 344.9 139.5 344.9Z" fill="#407BFF"/></g><path d="M103.2 345.4 94.5 345.4C94.2 345.4 93.9 345.7 93.8 346.1L92.3 355C92.2 355.8 92.6 356.6 93.2 356.8 93.3 356.8 93.4 356.8 93.5 356.8 96.5 356.7 98 356.5 101.9 356.5 104.3 356.5 107.3 356.8 110.6 356.8 113.9 356.8 114.3 352.6 113 352.2 107 350.5 106.6 348.2 104.7 345.9 104.1 345.6 103.6 345.4 103.2 345.4Z" fill="#263238"/><g><path d="M107.7 349.3C108.4 349.4 109 349.2 109.6 348.8 109.8 348.5 109.8 348.2 109.6 347.9 109.5 347.7 109.3 347.5 109 347.5 107.9 347.2 105.7 348.7 105.6 348.8 105.5 348.8 105.5 348.9 105.5 349 105.5 349.1 105.6 349.1 105.6 349.1 106.4 349.2 107.1 349.3 107.7 349.3ZM108.7 347.8C108.8 347.8 108.8 347.8 108.9 347.8 109 347.8 109.2 347.9 109.2 348 109.4 348.3 109.3 348.4 109.2 348.5 108.9 348.9 107.3 348.9 106.1 348.8 107 348.2 107.8 347.9 108.7 347.8L108.7 347.8Z" fill="#407BFF"/><path d="M105.8 349 105.8 349C106.7 348.6 108.2 346.9 108.1 346 108 345.7 107.8 345.5 107.5 345.5 107.2 345.5 106.9 345.6 106.7 345.7 105.8 346.4 105.6 348.7 105.6 348.8 105.6 348.9 105.6 348.9 105.7 349 105.7 349.1 105.7 349.1 105.8 349ZM107.3 345.9 107.3 345.9C107.6 345.9 107.6 346 107.6 346.1 107.7 346.6 106.7 347.9 105.9 348.5 106 347.6 106.3 346.8 106.8 346.1 107 346 107.2 345.9 107.3 345.9L107.3 345.9Z" fill="#407BFF"/></g><g><g><path d="M76.8 255.2C76.8 255.2 113.6 270.4 121.3 282.1 116.8 311.8 109.1 336.1 109.1 336.1L95.2 336.1C95.2 336.1 94.8 317.3 98.8 292.3 99.7 276.6 34.9 303.1 47.6 255.1L76.8 255.1Z" fill="#263238"/></g><path d="M89.3 255.2C89.3 255.2 123.4 259.6 142.1 270.3 142.1 270.3 147.4 272.8 147.4 281.5 147 300.2 143.4 318.6 136.8 336.1L125.2 336.1C125.2 336.1 125.8 317.2 125.4 286.8 125.3 277.7 106.4 284.2 88.4 283.2 72.8 282.2 59.2 272.5 53.2 258.1L52 255.2 89.3 255.2Z" fill="#263238"/><path d="M76.8 255.2C76.8 255.2 113.6 270.4 121.3 282.1 116.8 311.8 109.1 336.1 109.1 336.1L95.2 336.1C95.2 336.1 94.8 317.3 98.8 292.3 99.7 276.6 34.9 303.1 47.6 255.1L76.8 255.1Z" fill="#263238"/><path d="M89.3 255.2C89.3 255.2 123.4 259.6 142.1 270.3 142.1 270.3 147.4 272.8 147.4 281.5 147 300.2 143.4 318.6 136.8 336.1L125.2 336.1C125.2 336.1 125.8 317.2 125.4 286.8 125.3 277.7 106.4 284.2 88.4 283.2 72.8 282.2 59.2 272.5 53.2 258.1L52 255.2 89.3 255.2Z" fill="#263238"/></g></g></g></g><g><rect x="46.4" y="286.4" width="3.8" height="74.8" fill="#407BFF"/><rect x="76.5" y="286.4" width="3.8" height="74.8" fill="#407BFF"/><g><rect x="99.8" y="286.4" width="3.8" height="74.8" fill="#407BFF"/><rect x="99.8" y="286.4" width="3.8" height="74.8" opacity="0.4"/></g><g><rect x="69.8" y="286.4" width="3.8" height="74.8" fill="#407BFF"/><rect x="69.8" y="286.4" width="3.8" height="74.8" opacity="0.4"/></g><rect x="45.6" y="226.1" width="3.7" height="56.6" fill="#407BFF"/><rect x="45.6" y="226.1" width="3.7" height="56.6" fill="#FFFFFF" opacity="0.8"/><rect x="76.5" y="226.1" width="3.7" height="56.6" fill="#407BFF"/><rect x="76.5" y="226.1" width="3.7" height="56.6" fill="#FFFFFF" opacity="0.8"/><path d="M82 228.4 45.5 228.4C43.2 228.4 41.3 226.5 41.3 224.2L41.3 211.1C41.3 208.8 43.2 206.9 45.5 206.9L82 206.9C84.3 206.9 86.2 208.8 86.2 211.1L86.2 224.2C86.2 226.5 84.3 228.4 82 228.4Z" fill="#407BFF"/><path d="M82 228.4 45.5 228.4C43.2 228.4 41.3 226.5 41.3 224.2L41.3 211.1C41.3 208.8 43.2 206.9 45.5 206.9L82 206.9C84.3 206.9 86.2 208.8 86.2 211.1L86.2 224.2C86.2 226.5 84.3 228.4 82 228.4Z" fill="#FFFFFF" opacity="0.8"/><g><g><path d="M107.7 286.4 42.7 286.4C42.7 282.3 46 279 50.1 279L50.1 279 100.3 279C104.4 279 107.7 282.3 107.7 286.4L107.7 286.4Z" fill="#407BFF"/><path d="M107.7 286.4 42.7 286.4C42.7 282.3 46 279 50.1 279L50.1 279 100.3 279C104.4 279 107.7 282.3 107.7 286.4L107.7 286.4Z" fill="#FFFFFF" opacity="0.7"/></g></g></g><g><g><path d="M115 213.5 113.1 227.7C112.5 232.4 111.9 237.2 111.4 241.8L111.2 243.5 111.1 244.4C111.1 244.3 111.1 244.1 111.1 244 111.1 243.9 111 243.7 111 243.6 110.9 243.4 110.9 243.3 110.8 243.1 110.6 242.9 110.6 242.9 110.7 243 110.8 243.1 110.9 243.2 111 243.2 111.4 243.4 111.7 243.7 112.1 243.8 114.1 244.7 116.2 245.5 118.3 246.1 122.7 247.5 127.4 248.6 132 249.8L131.5 253.8C126.6 253.6 121.7 253.1 116.8 252.3 114.2 251.9 111.7 251.2 109.3 250.3 108.6 250 107.9 249.7 107.2 249.3 106.8 249.1 106.4 248.8 106 248.5 105.5 248.1 105 247.6 104.6 247.1 104.3 246.7 104.1 246.3 104 245.8 103.9 245.5 103.8 245.2 103.8 245 103.8 244.7 103.8 244.4 103.8 244.1L103.8 243.2 103.8 241.3C104 236.4 104.5 231.5 105 226.7 105.5 221.9 106.1 217.1 106.9 212.3L115 213.5Z" fill="#FFC3BD"/><path d="M142.6 254.1 139.5 256.9C138.8 257.6 137.7 257.7 136.8 257.3L133.4 255.7C133.4 255.7 128.3 255.5 127.6 252.4L128.9 250 136.8 249.1C137.6 249 138.4 249.2 139.1 249.6L142.3 251.6C143 252.1 143.3 253 142.8 253.8 142.8 253.9 142.7 254 142.6 254.1Z" fill="#FFC3BD"/><path d="M124 184.4C124.8 189.3 125.5 198.2 122 201.3 127.5 204.4 132.3 208.5 136.1 213.5 142.1 208.8 137.1 201.7 137.1 201.7 131.7 200.3 132 196.3 133.1 192.5L124 184.4Z" fill="#FFC3BD"/><path d="M112.4 202.5C106.3 204.5 105 212.7 105.5 219.1L117.9 226.7C117.9 226.7 120.9 217.4 120.9 212.4 120.8 207.1 116.6 201.2 112.4 202.5Z" fill="#263238"/><path d="M143.8 209 150.1 217.9C151.8 220.3 152.2 223.4 151.1 226 150.2 228 148.5 229.7 145.1 229.7 137.2 229.8 143.8 209 143.8 209Z" fill="#263238"/><path d="M150.3 214.9C146.5 225.3 142.2 233.7 145.5 253.3L112.4 252.3C113.3 240.1 112 231 109 209.6 108.5 205.8 111.2 202.2 115 201.7 115.1 201.7 118.7 200.3 121.2 200.2 126.2 200 131.2 200.1 136.2 200.6 137.7 200.9 153.3 203.2 150.3 214.9Z" fill="#263238"/><path d="M139.3 174.5C139.5 175.1 140 175.5 140.4 175.4 140.8 175.3 141 174.6 140.8 174 140.6 173.4 140.1 173 139.7 173.1 139.3 173.3 139.1 173.9 139.3 174.5Z" fill="#263238"/><path d="M139.5 173.3 140.9 172.4C140.9 172.3 140.5 173.8 139.5 173.3Z" fill="#263238"/><path d="M139.8 175.5C140.8 176.8 142 177.9 143.3 178.8 142.8 179.5 142 179.9 141.2 179.9L139.8 175.5Z" fill="#ED847E"/><path d="M138.3 168.9C138.4 168.8 138.4 168.6 138.3 168.5 138.2 168.3 137.9 168.3 137.8 168.4 136.8 169.1 136.2 170.3 136.2 171.5 136.2 171.7 136.4 171.9 136.6 171.9 136.6 171.9 136.6 171.9 136.6 171.9 136.8 171.9 137 171.7 137 171.5 137 171.5 137 171.5 137 171.5L137 171.5C137 170.5 137.5 169.6 138.3 169 138.3 169 138.3 169 138.3 168.9Z" fill="#263238"/><path d="M117.2 178.7C120.2 186.2 121.2 189.5 126.4 192.2 134.2 196.3 142.8 191 142.1 182.7 141.5 175.3 136.8 164.2 128.3 163.5 122.2 163 116.9 167.5 116.4 173.5 116.2 175.3 116.5 177.1 117.2 178.7Z" fill="#FFC3BD"/><path d="M135.3 177C136.4 176.7 138.1 175 137 171.7 136.4 169.8 136.4 167.8 137 165.8 137.4 164.2 136.6 162 132.7 160.6 126.2 158.1 119.1 159.3 114.8 165.3 114.8 165.3 101.1 169.4 112.3 183.5 123.5 197.6 137.6 191.7 135.3 177Z" fill="#263238"/><path d="M140 190.8C138 190.8 136 190.4 134.1 189.5 136.2 190.8 138.8 193.8 139.2 196.3 136.4 193.8 130.4 191.5 126.6 191.4 121.9 191.4 119.4 194.1 115.9 197.2 116.7 195.4 117.5 193.6 118.3 191.7 116.8 192.6 115.1 193.2 113.4 193.5 115 192.2 115.2 189.8 114.6 187.9 114 186 112.7 184.3 111.5 182.7 110.4 181 109.3 179.1 109.4 177.1 109.5 175.1 110.6 173.3 112.1 172 113.6 170.7 115.4 169.8 117.2 169 119.7 167.9 122.4 166.8 125.2 166.8 128.6 166.9 131.9 168.7 133.7 171.5 134.7 173 135.3 174.8 135.4 176.6 135.5 178.3 134.8 180 134.9 181.6 135.2 185.2 137.3 188.7 140 190.8Z" fill="#263238"/><path d="M132.1 178.5C132.9 180 134.2 181.1 135.8 181.7 137.9 182.4 139.1 180.5 138.5 178.4 138 176.6 136.4 174 134.2 174.2 132.6 174.4 131.5 175.8 131.7 177.4 131.7 177.8 131.9 178.2 132.1 178.5Z" fill="#FFC3BD"/><path d="M185.6 344.5 193.5 343.7 188.2 324.5 180.4 325.2Z" fill="#FFC3BD"/><path d="M204 349C199.2 347.6 199.4 345.5 194.6 341.6 194.1 341.2 193.5 340.9 192.9 340.8L185.1 340.3C184.8 340.3 184.5 340.5 184.5 340.8L183.4 346.2C183 348.1 184.2 349.9 185.8 349.9 188.4 350 191.6 350.1 194.4 350.3 198.5 350.6 198.6 352.7 203.4 352.4 206.4 352.3 205.6 349.5 204 349Z" fill="#263238"/><path d="M214.7 319.7 220 315.1 211.2 301.6 204.5 307.9Z" fill="#FFC3BD"/><path d="M218.6 312.2 212.3 318.1C212.1 318.3 212 318.7 212.2 319L215.2 323.6C216.2 325 218.2 325.3 219.6 324.3 219.7 324.2 219.8 324.1 219.9 324.1 222 322.5 223.1 319.7 225.6 317.4 229.2 314.1 229.8 314.1 232 309.5 233.5 306.4 230.2 306.4 229.1 307.3 226.2 309.8 227.3 309.9 220.6 311.3 219.8 311.4 219.2 311.7 218.6 312.2Z" fill="#263238"/><path d="M133.9 252.7C133.9 252.7 187.5 244.8 193.1 258.5 202.8 282.4 216.7 309.4 216.7 309.4L210.4 315.2C210.4 315.2 186.4 293.7 178.1 269.7 168.2 272.9 136.6 283.3 125 283.3 112.6 283.3 107.6 272.8 112.1 255.3 112.5 253.7 113.9 252.6 115.5 252.7 123.2 252.6 133.9 252.7 133.9 252.7Z" fill="#407BFF"/><path d="M133.9 252.7C133.9 252.7 187.5 244.8 193.1 258.5 202.8 282.4 216.7 309.4 216.7 309.4L210.4 315.2C210.4 315.2 186.4 293.7 178.1 269.7 168.2 272.9 136.6 283.3 125 283.3 112.6 283.3 107.6 272.8 112.1 255.3 112.5 253.7 113.9 252.6 115.5 252.7 123.2 252.6 133.9 252.7 133.9 252.7Z" fill="#FFFFFF" opacity="0.5"/><g><path d="M139 259.7C139 259.7 183 258.4 183.4 274 184 299.8 191.9 336.7 191.9 336.7L183.2 337.5C183.2 337.5 170.1 308.1 166.6 282.9 150.9 283.9 136.5 283.2 124.9 283.2 111.9 283.2 110.9 268.9 123.5 252.3 131.3 252.3 139 259.7 139 259.7Z" fill="#407BFF"/><path d="M139 259.7C139 259.7 183 258.4 183.4 274 184 299.8 191.9 336.7 191.9 336.7L183.2 337.5C183.2 337.5 170.1 308.1 166.6 282.9 150.9 283.9 136.5 283.2 124.9 283.2 111.9 283.2 110.9 268.9 123.5 252.3 131.3 252.3 139 259.7 139 259.7Z" fill="#FFFFFF" opacity="0.5"/></g><path d="M111.9 250.4 111 253.3C110.9 253.5 111.1 253.8 111.5 253.8L145.6 254.8C145.9 254.8 146.2 254.7 146.2 254.5L146.6 251.5C146.6 251.3 146.4 251.1 146 251.1L112.5 250.1C112.2 250.1 112 250.2 111.9 250.4Z" fill="#407BFF"/><path d="M116.3 254.2 115.4 254.2C115.2 254.2 115.1 254.1 115.1 254L115.6 250.2C115.6 250.1 115.8 250 115.9 250L116.8 250C117 250 117.1 250.1 117.1 250.2L116.6 254C116.6 254.2 116.5 254.3 116.3 254.2Z" fill="#263238"/><path d="M143 255 142.1 255C141.9 255 141.8 254.9 141.8 254.8L142.3 251C142.3 250.9 142.5 250.8 142.7 250.8L143.6 250.8C143.8 250.8 143.9 250.9 143.9 251L143.4 254.8C143.4 255 143.2 255 143 255Z" fill="#263238"/><path d="M129.6 254.6 128.7 254.6C128.5 254.6 128.4 254.5 128.4 254.4L128.9 250.6C128.9 250.5 129.1 250.4 129.3 250.4L130.2 250.4C130.4 250.4 130.5 250.5 130.5 250.6L130 254.4C130 254.6 129.8 254.7 129.6 254.6Z" fill="#263238"/><path d="M148.6 218.8C148.4 219.5 148.3 220.4 148.1 221.2 147.9 222 147.8 222.9 147.7 223.8 147.4 225.5 147.2 237.2 147.5 238.8L147.5 239.1 147.5 239C147.5 238.9 147.5 238.9 147.4 238.8 147.4 238.7 147.3 238.6 147.2 238.5 147 238.2 146.8 238 146.6 237.9 146.4 237.8 146.5 237.9 146.7 237.9 147.4 238.1 163.7 248.9 165.3 252.4L162.8 255.6C161.2 257.5 143.4 244.5 142.6 244 142 243.6 141.4 243 141 242.4 140.9 242.2 140.8 242 140.7 241.8L140.6 241.5 140.5 241.2 140.4 240.8C139.3 236.8 138.7 216.9 139 215.9L148.6 218.8Z" fill="#FFC3BD"/><path d="M150.1 210.2C151.1 216.8 148.2 224.6 148.2 224.6L137.9 223.3C137.9 223.3 134.3 209.7 137.6 206.6 138.2 204.3 140.3 202.6 143.7 203.3 147 204 149.5 206.8 150.1 210.2Z" fill="#263238"/><path d="M177.4 255.5 174.6 253.3C173.9 252.8 173 252.5 172.1 252.5L164.3 252.5 159.5 252.9C159.6 256.1 168.1 258.7 168.1 258.7L171.7 261C172.3 261.4 173 261.3 173.6 260.9L177.3 258.3C178.1 257.8 178.3 256.7 177.7 255.9 177.7 255.7 177.6 255.6 177.4 255.5Z" fill="#FFC3BD"/></g><g><rect x="108.5" y="290.2" width="3.8" height="75.2" fill="#407BFF"/><rect x="138.5" y="290.2" width="3.8" height="75.2" fill="#407BFF"/><g><rect x="161.9" y="290.2" width="3.8" height="75.2" fill="#407BFF"/><rect x="161.9" y="290.2" width="3.8" height="75.2" opacity="0.4"/></g><g><rect x="131.8" y="290.2" width="3.8" height="75.2" fill="#407BFF"/><rect x="131.8" y="290.2" width="3.8" height="75.2" opacity="0.4"/></g><rect x="107.7" y="229.9" width="3.7" height="56.6" fill="#407BFF"/><rect x="107.7" y="229.9" width="3.7" height="56.6" fill="#FFFFFF" opacity="0.8"/><rect x="138.6" y="229.9" width="3.7" height="56.6" fill="#407BFF"/><rect x="138.6" y="229.9" width="3.7" height="56.6" fill="#FFFFFF" opacity="0.8"/><path d="M144.1 232.2 107.6 232.2C105.3 232.2 103.4 230.3 103.4 228L103.4 214.9C103.4 212.6 105.3 210.7 107.6 210.7L144.1 210.7C146.4 210.7 148.3 212.6 148.3 214.9L148.3 228C148.3 230.3 146.4 232.2 144.1 232.2Z" fill="#407BFF"/><path d="M144.1 232.2 107.6 232.2C105.3 232.2 103.4 230.3 103.4 228L103.4 214.9C103.4 212.6 105.3 210.7 107.6 210.7L144.1 210.7C146.4 210.7 148.3 212.6 148.3 214.9L148.3 228C148.3 230.3 146.4 232.2 144.1 232.2Z" fill="#FFFFFF" opacity="0.8"/><g><g><path d="M169.7 290.2 104.7 290.2C104.7 286.1 108 282.8 112.1 282.8L112.1 282.8 162.3 282.8C166.4 282.8 169.7 286.1 169.7 290.2L169.7 290.2Z" fill="#407BFF"/><path d="M169.7 290.2 104.7 290.2C104.7 286.1 108 282.8 112.1 282.8L112.1 282.8 162.3 282.8C166.4 282.8 169.7 286.1 169.7 290.2L169.7 290.2Z" fill="#FFFFFF" opacity="0.7"/></g></g></g></g><g><g><path d="M254.9 258.1 260 262.6 256.4 270.2C256.4 270.2 254.3 269.1 252.6 267.6 252.3 267.4 252.1 267.1 252 266.8L249.8 260.7 254.9 258.1Z" fill="#7F3E3B"/><path d="M261.3 266.3 258.6 272 256.4 270.2 260 262.6Z" fill="#7F3E3B"/></g><g><path d="M211.5 221.3C210.5 218.8 209.5 216.3 208.5 213.8 207.6 211.3 206.7 208.8 205.8 206.1L216.4 202.7C218.1 207.5 220.9 212.5 222.7 217.2 224.6 222 229 233.2 229.6 234.3 229.9 234.8 230.2 235.3 230.5 235.8L234.9 238.7 225.6 245.6C225.7 245.6 218.3 241.6 211.5 221.3Z" fill="#7F3E3B"/><g><path d="M250.8 263.3C251.3 263.8 258.3 261.1 253.5 256.2 250.2 252.9 241.5 238.4 229 236.9 227.4 236.7 225.7 237.3 224.4 238.3 223.1 239.3 222.3 241 222.7 242.6 223.3 245 244.4 258 250.8 263.3Z" fill="#7F3E3B"/></g></g></g><g><g><g><g><path d="M255.7 362.5 262.1 359.8 259.4 342.4 250.2 344.9Z" fill="#7F3E3B"/><path d="M249.4 342.5 258.8 338.3 260.3 347.8 251.8 350Z" opacity="0.2"/></g><path d="M201.5 258.9C201.5 258.9 251.1 257.9 252.2 279.4 253 297 255.9 315.1 260.5 344L248.2 346C248.2 346 231.1 304.8 231.1 287.7 217.2 289.2 185 295.1 177 279.7 174 273.6 173.3 267.4 174.4 262.2L201.5 258.9Z" fill="#407BFF"/></g><path d="M246.4 348.5 262.3 344 261.3 336.9 245 342.4Z" fill="#263238"/></g><g><path d="M262.6 356.8 254.5 359.3C254.2 359.4 254 359.7 254.1 360L255.6 367.7C255.8 368.5 256.5 369 257.2 368.8 260 367.9 261.3 367.3 264.9 366.2 267.1 365.5 272.1 363.9 275.2 363.2 278.3 362.5 277.5 358.9 276.2 358.9 270.1 358.7 266.5 358.1 264 356.9 263.5 356.7 263 356.7 262.6 356.8Z" fill="#263238"/><g><path d="M267.7 357.1C267.9 356.8 267.8 356.4 267.7 356.1 267.6 355.9 267.4 355.8 267.2 355.7 266.2 355.6 264.6 357.6 264.4 357.8 264.4 357.9 264.4 357.9 264.4 358 264.4 358.1 264.5 358.1 264.6 358.1 265.3 358.1 265.9 358 266.6 357.8 266.9 357.8 267.4 357.5 267.7 357.1ZM267.1 356.1C267.2 356.1 267.3 356.2 267.3 356.3 267.4 356.5 267.5 356.7 267.4 356.9 267.2 357.3 266.2 357.6 264.8 357.7 265.5 357 266.5 356 267.1 356.1Z" fill="#407BFF"/><path d="M264.5 358.1C265.1 357.5 265.8 355.7 265.4 354.9 265.3 354.6 264.9 354.5 264.7 354.6 264.4 354.6 264.2 354.8 264.1 355 263.6 355.9 264.3 357.9 264.3 358 264.3 358.1 264.4 358.1 264.4 358.1 264.4 358.1 264.5 358.1 264.5 358.1 264.5 358.1 264.5 358.1 264.5 358.1ZM264.7 354.9C265 354.9 265.1 355 265.1 355.1 265.2 356 265 356.9 264.5 357.6 264.2 356.8 264.1 356 264.3 355.2 264.4 355 264.5 354.9 264.7 354.9L264.7 354.9Z" fill="#407BFF"/></g></g><g><g><path d="M287.4 362.1 293.9 358.3 288.4 339.8 279.3 343.7Z" fill="#7F3E3B"/><path d="M278.4 341.8 287.6 337 290 345.2 282 349.8Z" opacity="0.2"/></g><g><path d="M216.1 257.3C216.4 257.3 254.2 257.7 270.1 275.1 272.8 278 274.6 281.6 275.6 285.4 283.9 318.3 289.8 340.8 289.8 340.8L279.5 347.3C279.5 347.3 256.6 311.1 254.4 287.1 238.9 284.4 200.6 295.7 194.7 283.7 189.8 273.9 190.5 260 190.5 260L216.1 257.3Z" fill="#407BFF"/><path d="M277.9 349.1 291.7 341 289.9 335.2 275.2 342.1Z" fill="#263238"/></g></g><g><path d="M292.6 352.7 284.5 355.3C284.2 355.4 284.1 355.7 284.1 356.1L285.7 364.6C285.9 365.5 286.6 366.1 287.3 365.9 287.3 365.9 287.3 365.9 287.3 365.9 290.1 364.9 291.4 364.3 294.9 363.2 297.1 362.5 303 360.4 306 359.3 309 358.2 307.9 354.3 306.5 354.5 300.4 355 296.4 354.5 293.9 353 293.5 352.7 293 352.6 292.6 352.7Z" fill="#263238"/><g><path d="M297.7 354.4C298 354.2 298.2 353.9 298.2 353.6 298.2 353.4 298.2 353.2 298 353 297.3 352.3 294.8 352.9 294.5 353 294.4 353 294.4 353.1 294.4 353.1 294.4 353.2 294.4 353.2 294.5 353.3 295 353.7 295.6 354 296.2 354.2 296.7 354.5 297.2 354.5 297.7 354.4ZM297.7 353.2C297.8 353.3 297.8 353.4 297.8 353.5 297.8 353.7 297.7 353.9 297.5 354.1 297 354.3 296.1 354 295 353.3 296 353 297.4 352.9 297.7 353.2Z" fill="#407BFF"/><path d="M294.6 353.3C295.5 353.1 297.1 352.1 297.2 351.3 297.2 351 297.1 350.7 296.8 350.6 296.6 350.5 296.3 350.5 296 350.6 295 351 294.4 353.1 294.4 353.2 294.4 353.3 294.4 353.3 294.4 353.4L294.6 353.3C294.5 353.3 294.5 353.3 294.6 353.3ZM296.6 350.9C296.8 351 296.9 351.2 296.8 351.3 296.4 352.1 295.6 352.7 294.8 353 295 352.2 295.5 351.5 296.1 350.9 296.2 350.8 296.4 350.8 296.6 350.9L296.6 350.9Z" fill="#407BFF"/></g></g><g><path d="M186.5 170.9 191.2 175.3 198.2 181.2C198.1 181.5 198 182 197.8 182.4 197.4 183.7 197.3 185 197.4 186.3 197.5 188.9 198 191.1 202.4 192.5 202.4 192.5 207.4 197.7 196.8 197.2 186.3 196.7 184.1 191.5 184.1 191.5 188.4 187.8 187.5 176.9 186.5 170.9Z" fill="#7F3E3B"/><g><path d="M207.1 163.3C207.2 163.9 207.5 164.5 208 164.4 208.4 164.4 208.7 163.8 208.7 163.2 208.6 162.6 208.2 162 207.8 162.1 207.3 162.1 207 162.6 207.1 163.3Z" fill="#263238"/><path d="M204.7 161.1C204.8 161.1 204.9 161 205 160.9 205.4 160 206.2 159.4 207.2 159.1 207.4 159.1 207.6 158.9 207.5 158.7 207.5 158.5 207.3 158.3 207.1 158.4 207.1 158.4 207.1 158.4 207.1 158.4L207.1 158.4C205.9 158.6 204.8 159.4 204.3 160.6 204.2 160.8 204.3 161 204.5 161.1 204.5 161.1 204.6 161.1 204.7 161.1Z" fill="#263238"/><path d="M207.3 163.6C208 165.3 208.9 166.9 210.1 168.4 209.3 168.9 208.4 169.1 207.5 168.9L207.3 163.6Z" fill="#630F0F"/><path d="M185 162.3C186.2 170.3 186.5 175 191 178.9 195.3 182.8 201.9 182.4 205.8 178.1 207.2 176.5 208.1 174.5 208.4 172.4 209.5 165.1 207.3 153.3 199.2 150.6 193.7 148.6 187.6 151.4 185.6 156.8 184.9 158.5 184.7 160.4 185 162.3Z" fill="#7F3E3B"/></g></g><g><path d="M181.7 165.6C183.2 168.9 184.6 173 187.1 175.6L196.7 176.8C196.7 176.8 206.3 171 203.5 165.5 204.8 164.2 203.9 160.6 202.7 158.7 201.3 160.1 198.7 160.5 197.1 159.1 196.2 161.3 192.8 162 191.1 160.2 189.6 162.3 185.9 162.1 184.7 159.8 183.5 160.8 181.7 160.8 180.5 160 180.4 160 180.4 159.9 180.3 159.9 180.3 161.4 180.7 163.2 181.7 165.6Z" fill="#263238"/><path d="M181.7 165.6C183.2 168.9 184.6 173 187.1 175.6L196.7 176.8C196.7 176.8 206.3 171 203.5 165.5 204.8 164.2 203.9 160.6 202.7 158.7 201.3 160.1 198.7 160.5 197.1 159.1 196.2 161.3 192.8 162 191.1 160.2 189.6 162.3 185.9 162.1 184.7 159.8 183.5 160.8 181.7 160.8 180.5 160 180.4 160 180.4 159.9 180.3 159.9 180.3 161.4 180.7 163.2 181.7 165.6Z" fill="#FFFFFF" opacity="0.1"/><path d="M179.2 162.6C180.4 164.6 184.7 167.1 197.7 163.8 198.5 163.6 203.5 161.5 203.5 160.6 203.5 159.4 202.5 157.7 202.5 157.5 202.8 156.1 204.9 156.3 206.1 155.5 207.4 154.7 207.8 152.8 207.2 151.4 206.6 150 205.3 149 204 148.2 198.6 145.1 193.9 145.9 188.2 146.8 183.3 147.7 173.7 153.4 179.2 162.6Z" fill="#263238"/><path d="M199 166.4C199.5 168.3 200.6 170.1 202.1 171.4 204.1 172.9 205.4 171.1 205.1 168.5 204.9 166.2 203.6 162.6 201.4 162.1 199.4 161.6 198.4 163.9 199 166.4Z" fill="#7F3E3B"/></g><g><path d="M170.4 195.8C170.9 193.8 174.2 191.4 176.3 191.2 176.3 191.2 183.1 188.8 186 188.8 191.7 188.8 196 188.1 203.1 191.7 205.7 192.1 208.2 192.7 210.3 193.2 212.9 193.9 214.4 194.4 214.4 194.4 214.4 194.4 213.6 212.7 214.1 230.8 214.4 240.9 215.7 250.7 216.2 257.6L199.7 262.7C191.4 265.3 182.5 265 174.3 262L174.3 262C172 254 171.5 246.8 169.8 232 168.7 223.3 168.2 204.2 170.4 195.8Z" fill="#263238"/><path d="M213.9 220.8C214 224.6 214.1 228.6 214.1 232.6 208.4 226 203.7 206.6 203.7 206.6L213.9 220.8Z" opacity="0.2"/></g><path d="M220.6 200C224.1 206.7 230.1 219.6 230.1 219.6L215.3 226.9C210.4 221.6 203.6 208.7 203.1 203.7 202.5 198 206.3 193.4 212.2 194.1 215.8 194.4 218.9 196.8 220.6 200Z" fill="#263238"/></g><g><rect x="167.8" y="295" width="3.8" height="74.8" fill="#407BFF"/><rect x="197.9" y="295" width="3.8" height="74.8" fill="#407BFF"/><g><rect x="221.3" y="295" width="3.8" height="74.8" fill="#407BFF"/><rect x="221.3" y="295" width="3.8" height="74.8" opacity="0.4"/></g><g><rect x="191.2" y="295" width="3.8" height="74.8" fill="#407BFF"/><rect x="191.2" y="295" width="3.8" height="74.8" opacity="0.4"/></g><rect x="167.1" y="234.7" width="3.7" height="56.6" fill="#407BFF"/><rect x="167.1" y="234.7" width="3.7" height="56.6" fill="#FFFFFF" opacity="0.8"/><rect x="198" y="234.7" width="3.7" height="56.6" fill="#407BFF"/><rect x="198" y="234.7" width="3.7" height="56.6" fill="#FFFFFF" opacity="0.8"/><path d="M203.4 237 166.9 237C164.6 237 162.7 235.1 162.7 232.8L162.7 219.7C162.7 217.4 164.6 215.5 166.9 215.5L203.4 215.5C205.7 215.5 207.6 217.4 207.6 219.7L207.6 232.8C207.6 235.1 205.7 237 203.4 237Z" fill="#407BFF"/><path d="M203.4 237 166.9 237C164.6 237 162.7 235.1 162.7 232.8L162.7 219.7C162.7 217.4 164.6 215.5 166.9 215.5L203.4 215.5C205.7 215.5 207.6 217.4 207.6 219.7L207.6 232.8C207.6 235.1 205.7 237 203.4 237Z" fill="#FFFFFF" opacity="0.8"/><g><g><path d="M229.1 295 164.1 295C164.1 290.9 167.4 287.6 171.5 287.6L171.5 287.6 221.7 287.6C225.8 287.6 229.1 290.9 229.1 295L229.1 295Z" fill="#407BFF"/><path d="M229.1 295 164.1 295C164.1 290.9 167.4 287.6 171.5 287.6L171.5 287.6 221.7 287.6C225.8 287.6 229.1 290.9 229.1 295L229.1 295Z" fill="#FFFFFF" opacity="0.7"/></g></g></g></svg>