<svg width="54.9" height="65.1" viewBox="0 0 54.9 65.1" xmlns="http://www.w3.org/2000/svg" xmlns:xlink="http://www.w3.org/1999/xlink" xml:space="preserve" overflow="hidden"><defs></defs><g><g><path d="M7.5 64 10.7 64 11.6 39.6 6.6 39.6Z" fill="#F3CC99"/><path d="M12.8 64 15.9 64 16.9 39.6 11.9 39.6Z" fill="#F3CC99"/><path d="M5.5 32.3 2.9 47.2 20.7 47.2 18.1 32.3Z" fill="#20182B"/><path d="M16.8 64.1C16.9 63.8 17 63.6 17 63.2 17 62 15.9 61.1 14.5 61.1 13.1 61.1 12 62 12 63.2 12 63.5 12.1 63.8 12.2 64.1L16.8 64.1Z" fill="#20182B"/><path d="M6.8 64.1C6.7 63.8 6.6 63.6 6.6 63.2 6.6 62 7.7 61.1 9.1 61.1 10.5 61.1 11.6 62 11.6 63.2 11.6 63.5 11.5 63.8 11.4 64.1L6.8 64.1Z" fill="#20182B"/><g><g><path d="M18.2 7.6C18.2 4.5 15.7 1.9 12.6 1.9 9.6 2 7.1 4.5 7.1 7.6 7.1 9.8 8.4 11.8 10.2 12.7L10.2 17.6 13.4 17.6 13.4 13.2C16.1 12.8 18.2 10.5 18.2 7.6Z" fill="#F3CC99"/><path d="M19.6 5.5C19.6 5.5 19.8-2.9 9.1 1.1 9.1 1.1 1.2-3.3 5.7 17.6L10.2 16.9 10.2 12.7C8.7 11.5 8.3 9.1 8.3 8 8.2 5.2 11 3 11 3 11 3 13.9 6.7 19.6 5.5Z" fill="#20182B"/><path d="M7.3 8.6C7.1 7.8 7.5 7 8.3 6.8 9 6.6 9.8 7.1 10 7.9 10.2 8.7 9.8 9.6 9 9.8 8.3 10 7.5 9.5 7.3 8.6Z" fill="#F3CC99"/></g><path d="M19.8 15.5C16.3 15.2 11.7 15.2 11.7 15.2L11.5 15.2C10 15.3 4.7 15.3 3.5 15.5 1.1 16-0.8 33.5 3.1 33.5L11.5 33.5 11.7 33.5 23 33.5C23 33.5 23.2 15.8 19.8 15.5Z" fill="#2393C4"/><rect x="18.3" y="32.2" width="4.7" height="2.5" fill="#275A7C"/><path d="M15.4 15.3C13.2 15.2 11.4 15.2 11.4 15.2L11.2 15.2C10.6 15.2 9.2 15.2 7.6 15.3L7.6 33.5 15.3 33.5 15.3 15.3Z" fill="#BDDFF3"/><path d="M20 33.5 8.3 33.5 15.8 18.3 27.5 18.3Z" fill="#AAC7DC"/><path d="M10.1 28.6 10.1 33.5C12.4 33.5 14.2 32.4 14.2 31.1 14.2 29.7 12.3 28.6 10.1 28.6Z" fill="#F3CC99"/><path d="M10.2 28.6 10.2 33.4 2 33.4C1 33.4 0.2 32.6 0.1 31.7-0.2 26.9 0 15.5 3.9 15.5 8.7 15.5 5.5 15.3 5.5 15.3L5.1 26.3C5 27.3 5.8 28.2 6.8 28.3L10.2 28.6Z" fill="#2393C4"/><g><path d="M11.4 15.2 6.5 15.2 8.9 18.8Z" fill="#F0EDEB"/><path d="M11.4 15.2 16.2 15.2 13.8 18.8Z" fill="#F0EDEB"/></g></g><path d="M18.4 34.4C18.3 35 18.3 35.7 18.6 36.3 19.2 37.6 20.7 38.2 21.9 37.6 23 37 23.5 35.7 23.1 34.4L18.4 34.4Z" fill="#F3CC99"/></g><g><path d="M31.6 18.1C31.8 18.1 32 18.2 32.2 18.2 32.2 18.2 32.2 18.3 32.4 18.4L33.9 19.2 54.6 29.3C55 29.5 55.1 29.9 54.9 30.3L54.9 30.3C54.7 30.7 54.3 30.8 53.9 30.6L35.3 21.5 35.3 21.5 35.3 21.5 31.5 19.5C31.1 19.3 30.9 18.9 30.8 18.5L30.8 18.1C31.1 18.1 31.4 18 31.6 18.1Z" fill="#9A9A9A"/><rect x="43.4" y="29.5" width="1" height="30.9" fill="#BCBCBC"/><path d="M44.3 30.6C44.2 30.6 44.1 30.6 44.1 30.6L43.7 30.6C43.6 30.6 43.5 30.6 43.4 30.5L43.4 29.5 44.4 29.5 44.4 30.6Z" fill="#BCBCBC" opacity="0.85"/><rect x="36.7" y="60.7" width="7.1" height="0.8" fill="#9A9A9A" transform="matrix(0.9934 -0.1147 0.1147 0.9934 -6.7461 5.0225)"/><rect x="46.1" y="59.1" width="0.8" height="7.1" fill="#9A9A9A" transform="matrix(0.4249 -0.9052 0.9052 0.4249 -29.9166 78.1405)"/><path d="M43.8 60.7 43.8 60.7C43.8 60.6 43.7 60.5 43.7 60.5L48.4 59.5 48.6 60.2 43.9 61.2C43.9 61 43.9 60.8 43.8 60.7Z" fill="#9A9A9A"/><circle cx="43.9" cy="60.7" r="1.2" fill="#362F40"/><path d="M37 60.9 37.2 62.2C37.2 62.2 35.6 62.7 35.5 61.9 35.4 61.3 35.8 61.1 37 60.9Z" fill="#362F40"/><path d="M49.8 63.4 49.2 64.6C49.2 64.6 50.6 65.5 50.9 64.9 51.1 64.3 50.8 64 49.8 63.4Z" fill="#362F40"/><path d="M48.1 59.3 48.3 60.5C48.3 60.5 49.8 60.4 49.6 59.7 49.5 59.1 49.1 59.1 48.1 59.3Z" fill="#362F40"/><path d="M43.7 30.2 44.1 30.2C44.5 30.2 44.8 29.9 44.8 29.5L44.8 27.5 43 27.5 43 29.5C43 29.8 43.3 30.2 43.7 30.2Z" fill="#BCBCBC"/><path d="M46.8 27.5 42.2 25.2 43 23.6 47.5 26Z" fill="#362F40"/><path d="M42.8 26.7 42.8 26.7 42.8 26.7C42.8 26.7 42.8 26.7 42.8 26.7L43.5 25.3 45.8 26.2 45.1 27.7C45.1 27.7 45.1 27.7 45.1 27.7L45.1 27.7 45.1 27.7C44.9 28.1 44.5 28.4 43.9 28.4 43.2 28.4 42.6 27.8 42.6 27.1 42.7 27 42.7 26.8 42.8 26.7Z" fill="#362F40"/><path d="M43.5 27.2C43.5 27.4 43.7 27.6 43.9 27.6 44.1 27.6 44.3 27.4 44.3 27.2 44.3 27 44.1 26.8 43.9 26.8 43.7 26.8 43.5 27 43.5 27.2Z" fill="#B8B8B8"/><path d="M30.6 18.2 30.6 18.2 30.6 18.2C30.6 18.2 30.6 18.2 30.6 18.2L31.1 17.2 32.7 17.9 32.2 18.9C32.2 18.9 32.2 18.9 32.2 18.9L32.2 18.9 32.2 18.9C32.1 19.2 31.8 19.4 31.4 19.4 30.9 19.4 30.5 19 30.5 18.5 30.5 18.4 30.6 18.3 30.6 18.2Z" fill="#362F40"/><path d="M31.1 18.6C31.1 18.8 31.2 18.9 31.4 18.9 31.6 18.9 31.7 18.8 31.7 18.6 31.7 18.4 31.6 18.3 31.4 18.3 31.3 18.3 31.1 18.4 31.1 18.6Z" fill="#B8B8B8"/><g><path d="M27 15.9C25.6 15.7 24.9 14.6 24.9 14.6L25.4 13.4 25.9 12.2C25.9 12.2 27.2 12 28.3 12.9 28.9 13.4 30.7 14.6 32.5 15.5 33.8 16.2 36.5 17.2 36.5 17.2 36.5 17.2 36.7 17.7 36.4 18.3 36.1 18.9 35.7 19.1 35.7 19.1 35.7 19.1 33.1 17.6 31.8 17.1 29.8 16.5 27.8 16 27 15.9Z" fill="#362F40"/><path d="M29.8 14 28.8 16.3C28 16.1 27.4 16 27 15.9 25.6 15.7 24.9 14.6 24.9 14.6L26 12.2C26 12.2 27.3 12 28.4 12.9 28.6 13.2 29.1 13.6 29.8 14Z" fill="#BCBCBC"/><path d="M24.9 14.4C25 13.7 25.3 13 25.7 12.5L25.9 12.3 25.9 12.6C25.8 13.3 25.5 14 25.1 14.5L24.9 14.7 24.9 14.4Z" fill="#DCDCDC"/><path d="M27 14.9C27.3 14.4 27.5 13.8 27.7 13.3 27.8 13.1 27.8 12.9 27.8 12.7 27.9 12.8 28.1 12.9 28.2 13 28.5 13.2 29 13.6 29.7 14.1L28.7 16.4C28 16.1 27.4 16 27 15.9 26.8 15.9 26.6 15.8 26.5 15.8 26.7 15.6 26.9 15.2 27 14.9Z" fill="#9A9A9A"/><g><path d="M26.2 15.7C26.3 15.5 26.5 15.3 26.6 15.1 27 14.5 27.2 13.9 27.4 13.3 27.5 13 27.5 12.8 27.6 12.6 27.8 12.7 28 12.8 28.2 13 28.1 13.3 28 14 27.7 14.6 27.4 15.2 27 15.8 26.9 16 26.6 15.9 26.4 15.8 26.2 15.7Z" fill="#20182B"/><path d="M29.3 14.3C29.3 14.1 29.4 13.9 29.4 13.8 29.5 13.9 29.7 14 29.9 14.1 29.8 14.3 29.7 14.8 29.5 15.3 29.3 15.7 29 16.2 28.9 16.4 28.7 16.4 28.5 16.3 28.4 16.3 28.5 16.2 28.6 16 28.7 15.8 29 15.3 29.2 14.9 29.3 14.3Z" fill="#9D939C"/><path d="M29.3 14.3C29.3 14.1 29.4 13.9 29.4 13.8 29.5 13.9 29.7 14 29.9 14.1 29.8 14.3 29.7 14.8 29.5 15.3 29.3 15.7 29 16.2 28.9 16.4 28.7 16.4 28.5 16.3 28.4 16.3 28.5 16.2 28.6 16 28.7 15.8 29 15.3 29.2 14.9 29.3 14.3Z"/></g><path d="M26.2 12.4 26.5 12.5 26.5 12.8 26.1 12.8Z" fill="#20182B"/><path d="M26.1 13 26.4 13 26.3 13.4 26 13.3Z" fill="#20182B"/><path d="M25.2 14.7 25.4 15 25.7 14.7 25.4 14.5Z" fill="#20182B"/><path d="M25.5 14.3 25.8 14.5 26 14.2 25.7 14Z" fill="#20182B"/><path d="M26.1 14 26.2 13.6 25.9 13.5 25.8 13.8Z" fill="#20182B"/><path d="M26.9 12.6 27.3 12.6 27.2 13 26.8 13Z" fill="#20182B"/><path d="M26.7 13.2 27.1 13.3 27 13.6 26.6 13.6Z" fill="#20182B"/><path d="M25.8 15.1 26.1 15.4 26.3 15.1 26 14.8Z" fill="#20182B"/><path d="M26.1 14.6 26.4 14.9 26.6 14.6 26.3 14.3Z" fill="#20182B"/><path d="M27.5 15.2 27.9 15.4 28 15.1 27.7 14.9Z" fill="#20182B"/><path d="M27.3 15.7 27.6 15.9 27.7 15.6 27.4 15.4Z" fill="#20182B"/><rect x="26.5" y="13.8" width="0.4" height="0.4" fill="#20182B" transform="matrix(0.4013 -0.916 0.916 0.4013 3.1236 32.8369)"/><rect x="27.8" y="14.4" width="0.4" height="0.4" fill="#20182B" transform="matrix(0.4034 -0.915 0.915 0.4034 3.341 34.3821)"/><path d="M28.2 15.4 28.5 15.6 28.6 15.3 28.3 15.2Z" fill="#20182B"/><path d="M27.9 15.9 28.2 16 28.3 15.8 28.1 15.6Z" fill="#20182B"/><path d="M28.1 13.9 28.5 14 28.4 14.3 28 14.2Z" fill="#20182B"/><path d="M28.3 13.3 28.6 13.5 28.5 13.8 28.2 13.7Z" fill="#20182B"/><path d="M28.7 14.2 29 14.3 28.9 14.6 28.6 14.5Z" fill="#20182B"/><path d="M28.9 13.7 29.2 13.8 29.1 14.1 28.8 14Z" fill="#20182B"/><rect x="28.4" y="14.7" width="0.4" height="0.4" fill="#20182B" transform="matrix(0.4042 -0.9147 0.9147 0.4042 3.4385 35.0587)"/></g><path d="M32.7 18.3 30.6 17.3 31.8 14.9 33.9 15.9Z" fill="#BCBCBC"/></g></g></svg>