<svg width="108.9" height="65.3" viewBox="0 0 108.9 65.3" xmlns="http://www.w3.org/2000/svg" xmlns:xlink="http://www.w3.org/1999/xlink" xml:space="preserve" overflow="hidden"><defs></defs><g><g><g><path d="M62.4 14.2 60.9 11.7C60.9 11.7 55.2 14 54.1 14.1 52.9 14.2 50.7 10.4 48.2 11.9 45.6 13.4 52 18 54.5 17.7 56.9 17.3 62.4 14.2 62.4 14.2Z" fill="#2393C4"/><path d="M61.3 11.4C61.2 11.5 61 11.6 60.9 11.6L62.4 14.2C62.5 14.1 62.7 14.1 62.8 14 63.9 13.4 64.5 12.3 64.1 11.6 63.6 10.8 62.4 10.8 61.3 11.4Z" fill="#F3CC99"/></g><rect x="44.8" y="25.9" width="5.1" height="17" fill="#20182B"/><rect x="39.4" y="25.9" width="5.4" height="17" fill="#463F4F"/><path d="M49.9 27.2 49.9 12.1C49.9 11.8 49.8 11.5 49.5 11.5 47.4 11.4 44.9 11.4 44.9 11.4L44.8 11.4C43.8 11.4 39.3 11.5 38.5 11.6 36.8 11.9 36.5 18.7 36.4 22.5 36.4 23.9 37.6 25.1 39 25.1L39.3 25.1 39.3 27.2 49.9 27.2Z" fill="#2393C4"/><rect x="43.7" y="9.4" width="2.3" height="3.8" fill="#F3CC99"/><path d="M47.6 11.4C46.1 11.4 44.9 11.4 44.9 11.4L44.8 11.4C44.4 11.4 43.4 11.4 42.3 11.5L42.3 27.3 47.6 27.3 47.6 11.4Z" fill="#BDDFF3"/><path d="M46.2 1.5C45.3 1.6 44.4 1.6 43.5 1.5 42.4 1.4 41.1 1.6 41.1 3.1 41.1 10.4 44.9 10.4 44.9 10.4 44.9 10.4 48.7 10.5 48.7 3.1 48.6 1.6 47.3 1.4 46.2 1.5Z" fill="#F3CC99"/><path d="M42.6 6.2C42.7 7 42.3 7.7 41.7 7.8 41.1 7.9 40.5 7.4 40.3 6.6 40.2 5.8 40.2 5.2 41.2 5 41.9 4.9 42.5 5.4 42.6 6.2Z" fill="#F3CC99"/><path d="M41.6 1.7C41.9 0.7 43.1 0.2 44.2 0.2 45.3 0.2 46.3 0.6 47.3 0.7 48.3 0.8 49.6 0.8 50.3 0 50.9 1.1 50.2 2.5 49.1 3.1 48 3.7 46.7 3.7 45.5 3.7 44.6 3.6 43.7 3.5 42.9 3 42.2 2.5 41.3 2.6 41.6 1.7Z" fill="#20182B"/><path d="M43 1.5C43 1.5 42.4 4.9 42.7 6.6L41.8 7C41.8 7 42 6.5 41.8 5.7 41.7 5.2 41.1 5.1 40.8 5.3 40.1 5.6 40.4 6.6 40.4 6.6 40.4 6.6 38.2 0.2 43 1.5Z" fill="#20182B"/><rect x="44.3" y="11.3" width="1" height="9" fill="#20182B"/><path d="M50.7 25.1 42.7 25.1 47.8 14.7 55.9 14.7Z" fill="#AAC7DC"/><path d="M43.9 21.8 43.9 25.1C45.5 25.1 46.7 24.3 46.7 23.4 46.7 22.5 45.5 21.8 43.9 21.8Z" fill="#F3CC99"/><path d="M44 21.8 44 25.1 37.7 25.1C37 25.1 36.5 24.6 36.4 23.9 36.2 20.6 35.8 11.5 38.6 11.5 41.9 11.5 40.8 11.4 40.8 11.4L40.5 20.2C40.5 20.9 41 21.5 41.7 21.5L44 21.8Z" fill="#2393C4"/><g><path d="M44.8 11.3 41.5 11.3 43.2 13.8Z" fill="#F0EDEB"/><path d="M44.8 11.3 48.1 11.3 46.5 13.8Z" fill="#F0EDEB"/></g><path d="M50 44.9C50.1 44.6 50.2 44.3 50.2 44 50.2 42.8 49 41.8 47.5 41.8 46 41.8 44.8 42.8 44.8 44 44.8 44.3 44.9 44.6 45 44.9L50 44.9Z" fill="#20182B"/><path d="M39.5 44.9C39.4 44.6 39.3 44.3 39.3 44 39.3 42.8 40.5 41.8 42 41.8 43.5 41.8 44.7 42.8 44.7 44 44.7 44.3 44.6 44.6 44.5 44.9L39.5 44.9Z" fill="#20182B"/></g><g><g><path d="M11.8 48C11.8 47.5 11.8 47.1 11.8 46.7 11.8 46.5 11.8 46.3 11.8 46.2 11.7 45.2 10.4 44.9 9.2 44.7 9.2 44.7 8.7 44.4 8.4 44.2 9.2 44.1 9.8 43.9 9.8 43.8 10.6 42 10.2 36.2 6.5 36.2L6.5 36.2 6.5 36.2C2.5 36.2 2.6 41.9 3.2 43.8 3.2 43.9 3.8 44.1 4.7 44.2 4.4 44.4 3.8 44.7 3.8 44.7L3.8 44.7C2.6 44.9 1.2 45.2 1.2 46.2 1.2 46.3 1.2 46.5 1.2 46.7 1.2 46.8 1.2 47 1.2 47.2 1.2 47.3 1.2 47.4 1.2 47.5 1.2 47.6 1.2 47.6 1.2 47.7 1.2 48.1 1.2 48.5 1.2 48.9 1.2 49 1.2 49.1 1.2 49.2 1.2 49.9 1.2 50.3 1.2 50.3L1.2 50.3 6.5 50.3 6.6 50.3 11.9 50.3C11.9 50.3 11.9 49.4 11.9 48.4 11.8 48.2 11.8 48.1 11.8 48Z" fill="#2F2739"/><path d="M28.9 44.9C28.8 44.8 28.7 44.7 28.6 44.6L28.6 44.6C28.6 44.6 28.3 44.3 26.3 44L26.3 44C26.3 44 26.2 44 26.2 44 26.2 44 26.2 44 26.2 44 26.2 44 26.1 44 26.1 44 26.1 44 26.1 44 26.1 44 26.1 44 26 44 26 44 26 44 26 44 26 44 26 44 25.9 43.9 25.9 43.9L25.9 43.9C25.9 43.9 25.8 43.8 25.8 43.8 25.8 43.8 25.8 43.8 25.8 43.8 25.8 43.8 25.8 43.7 25.7 43.7 25.7 43.7 25.7 43.7 25.7 43.7 25.7 43.7 25.7 43.6 25.7 43.6 25.7 43.6 25.7 43.6 25.7 43.6 25.7 43.6 25.7 43.5 25.6 43.5 25.5 43.3 25.5 43 25.5 42.8 25.5 42.7 25.5 42.6 25.5 42.5 25.7 42.3 25.9 42 26 41.9 26.2 41.6 26.3 41.3 26.3 41 26.3 41 26.3 41 26.4 41 27 40.8 27.2 39.4 26.9 39.3 26.9 39.3 26.8 39.3 26.8 39.3 26.8 39.1 26.9 38.9 26.9 38.8 26.9 38.7 26.9 38.6 26.9 38.5 26.9 38.5 26.9 38.5 26.9 38.4 26.9 36.9 25.7 35.6 24.1 35.6L24.1 35.6 24.1 35.6C22.6 35.6 21.3 36.8 21.3 38.4 21.3 38.5 21.3 38.5 21.3 38.6 21.3 38.6 21.3 38.7 21.3 38.7 21.3 38.9 21.3 39.1 21.4 39.3 21.4 39.3 21.3 39.3 21.3 39.3 21.1 39.4 21.2 40.7 21.8 41 21.8 41 21.8 41 21.9 41 22 41.3 22.1 41.6 22.2 41.9 22.3 42 22.4 42.2 22.7 42.5 22.7 42.6 22.7 42.7 22.7 42.8 22.7 43 22.6 43.3 22.6 43.5 22.6 43.5 22.6 43.6 22.5 43.6 22.5 43.6 22.5 43.6 22.5 43.6 22.5 43.6 22.5 43.7 22.5 43.7 22.5 43.7 22.5 43.7 22.5 43.7 22.5 43.7 22.5 43.8 22.4 43.8 22.4 43.8 22.4 43.8 22.4 43.8 22.4 43.8 22.3 43.9 22.3 43.9L22.3 43.9C22.3 43.9 22.2 44 22.2 44 22.2 44 22.2 44 22.2 44 22.2 44 22.2 44 22.1 44 22.1 44 22.1 44 22.1 44 22.1 44 22 44 22 44 22 44 22 44 22 44 22 44 21.9 44 21.9 44 19.9 44.3 19.6 44.6 19.6 44.6 19.6 44.6 19.6 44.6 19.6 44.6 19.2 44.8 19 45.1 18.9 45.5 18.8 46.6 18.9 50.1 18.9 50.1L21.1 50.1 24.2 50.1 24 50.1 27.1 50.1 29.3 50.1C29.3 50.1 29.3 46.6 29.3 45.5 29.2 45.3 29.1 45.1 28.9 44.9Z" fill="#2F2739"/><path d="M12.7 65.3 0 65.3 0 49.1C0 47.8 1.4 46.8 3.1 46.8L9.7 46.8C11.4 46.8 12.8 47.8 12.8 49.1L12.8 65.3Z" fill="#2F2739"/><path d="M30.4 65.3 17.7 65.3 17.7 49.1C17.7 47.8 19.1 46.8 20.8 46.8L27.4 46.8C29.1 46.8 30.5 47.8 30.5 49.1L30.5 65.3Z" fill="#2F2739"/><path d="M26.9 54C26.9 53.5 26.9 53 26.9 52.6 26.9 52.4 26.9 52.2 26.9 52.1 26.9 51.6 27.2 51.3 27.7 51 27.5 47.6 28.8 41.2 32.8 41.2 37.1 41.2 38.2 47.6 38 51 38.4 51.2 38.7 51.6 38.7 52 38.7 52.2 38.7 52.3 38.7 52.5 38.7 52.6 38.7 52.7 38.7 52.8 38.7 52.9 38.7 53 38.7 53.2 38.7 53.3 38.7 53.4 38.7 53.6 38.7 54 38.7 54.5 38.7 54.9 38.7 55 38.7 55.1 38.7 55.2 38.7 55.9 38.7 56.5 38.7 56.5L38.7 56.5 35.4 56.5 35.4 56.5 32.8 56.5 30.2 56.5 30.2 56.5 26.9 56.5C26.9 56.5 26.9 55.5 26.9 54.3 26.9 54.3 26.9 54.2 26.9 54Z" fill="#2F2739"/><path d="M10.6 50.8C11.2 50.6 11.9 50.5 12.5 50.4 12.6 50.4 12.6 50.4 12.6 50.4 12.6 50.4 12.6 50.4 12.6 50.4 12.6 50.4 12.7 50.4 12.7 50.4 12.7 50.4 12.7 50.4 12.7 50.4 12.7 50.4 12.8 50.4 12.8 50.4 12.8 50.4 12.8 50.4 12.8 50.4 12.8 50.4 12.8 50.4 12.9 50.3 12.9 50.3 12.9 50.3 12.9 50.3 12.9 50.3 12.9 50.3 13 50.2 13 50.2 13 50.2 13 50.2 13 50.2 13 50.1 13.1 50.1 13.1 50.1 13.1 50.1 13.1 50.1 13.2 50 13.2 49.9 13.2 49.9 13.3 49.6 13.4 49.3 13.4 49 13.4 48.9 13.4 48.8 13.4 48.7 13.1 48.4 13 48.2 12.9 48.1 12.7 47.8 12.6 47.5 12.5 47.1 12.5 47.1 12.5 47.1 12.4 47.1 11.7 46.8 11.6 45.3 11.8 45.2 11.8 45.2 11.9 45.2 11.9 45.2 11.9 45 11.8 44.8 11.8 44.7 11.7 44.3 11.7 43.9 11.7 43.5 11.6 42.9 12 41.9 12.7 41.5L12.1 41.2C12.7 40.8 13.6 41.1 13.8 41.1L13.1 40.7C14 40.5 14.4 41 15 41L15 41 14.4 40.5C15.5 40.5 16.1 41.1 16.2 41.2 17.4 41.5 18.3 42.3 18.3 43.6 18.3 44.1 18.2 44.7 18.1 45.2 18.1 45.2 18.1 45.3 18.1 45.3 18.1 45.3 18.2 45.3 18.2 45.3 18.4 45.4 18.3 46.9 17.6 47.2 17.6 47.2 17.6 47.2 17.5 47.2 17.4 47.5 17.3 47.9 17.1 48.2 17 48.3 16.8 48.6 16.6 48.8 16.6 48.9 16.6 49 16.6 49.1 16.6 49.4 16.7 49.7 16.8 50 16.8 50.1 16.9 50.2 16.9 50.2 16.9 50.2 16.9 50.2 16.9 50.2 16.9 50.2 16.9 50.3 17 50.3 17 50.3 17 50.3 17 50.3 17 50.3 17 50.3 17.1 50.4 17.1 50.4 17.1 50.4 17.1 50.4 17.1 50.4 17.1 50.4 17.2 50.5 17.2 50.5 17.2 50.5 17.2 50.5 17.2 50.5 17.2 50.5 17.3 50.5 17.3 50.5 17.3 50.5 17.3 50.5 17.3 50.5 17.4 50.5 17.4 50.5 17.4 50.5 17.4 50.5 17.4 50.5 17.4 50.5 17.5 50.5 17.5 50.5 18.1 50.6 18.8 50.7 19.4 50.9 20.2 51.1 20.7 51.5 20.8 52.2 20.9 53.4 20.8 56.7 20.8 56.7L15 56.7 15 56.7 9.2 56.7C9.2 56.7 9.2 53.4 9.2 52.2 9.3 51.5 9.8 51.1 10.6 50.8Z" fill="#2F2739"/><path d="M25.8 62 39.9 62 39.9 54.1C39.9 52.7 38.4 51.6 36.5 51.6L29.2 51.6C27.3 51.6 25.8 52.7 25.8 54.1L25.8 62Z" fill="#2F2739"/><path d="M8 62 22.1 62 22.1 54.1C22.1 52.7 20.6 51.6 18.7 51.6L11.4 51.6C9.5 51.6 8 52.7 8 54.1L8 62Z" fill="#2F2739"/><rect x="0" y="55.1" width="39.8" height="10.2" fill="#2F2739"/></g><g><path d="M100 44.7 100.4 44.4 100.4 44.4 101 43.9C101.1 43.7 101.1 43.4 101.1 43.2 101.1 43.1 101.1 43 101.1 42.9 100.9 42.7 100.7 42.4 100.6 42.3 100.4 42 100.3 41.7 100.3 41.4 100.3 41.4 100.3 41.4 100.2 41.4 99.6 41.2 99.4 39.8 99.7 39.7 99.7 39.7 99.8 39.7 99.8 39.7 99.8 39.5 99.7 39.3 99.7 39.1 99.7 39.1 99.7 39 99.7 39 99.7 39 99.7 38.9 99.7 38.9 99.7 37.6 99.9 36.8 100.6 36.4 101.2 36.1 102.1 36 103 36 104.3 36 104.3 36.8 104.3 36.8 105.2 36.7 105.2 38 105.2 38.9 105.2 38.9 105.2 39 105.2 39 105.2 39.1 105.2 39.2 105.2 39.3 105.2 39.5 105.2 39.7 105.1 39.8 105.1 39.8 105.2 39.8 105.2 39.8 105.4 39.9 105.3 41.2 104.7 41.5 104.7 41.5 104.7 41.5 104.6 41.5 104.5 41.8 104.4 42.1 104.3 42.4 104.2 42.5 104.1 42.7 103.8 43 103.8 43.1 103.8 43.2 103.8 43.3 103.8 43.5 103.9 43.8 103.9 44L104.5 44.5 104.5 44.5 105 44.8C106.2 45 107.5 45.4 107.6 46.3 107.7 47.4 107.6 50.3 107.6 50.3L102.7 50.3 102.7 50.3 102.3 50.3 102.3 50.3 102.3 50.3 102.3 50.3 102.3 50.3 102.3 50.3 102.3 50.3 102.3 50.3 97 50.3C97 50.3 97 47.4 97 46.3 97.4 45.2 98.8 44.9 100 44.7Z" fill="#2F2739"/><path d="M80.7 46.1C81.3 45.9 82 45.8 82.6 45.7 82.6 45.7 82.6 45.7 82.7 45.7L82.7 45.7 83 45.4C82.3 45.1 81.8 44.8 81.8 44.8 82.2 44.1 82.2 42.8 82.2 41.6 82 41.4 82 41.1 82 41 82 40.5 81.9 40.1 81.9 39.9 81.9 38.4 83.3 37.1 84.9 37.1L84.9 37.1 84.9 37.1C86.4 37.1 87.9 38.3 87.9 39.9 87.9 40.6 87.7 44.3 88.2 44.8 88.2 44.8 87.7 45.1 86.9 45.4L87.2 45.7 87.2 45.7C87.2 45.7 87.3 45.7 87.3 45.7 87.9 45.8 88.7 45.9 89.2 46.1 89.8 46.3 90.2 46.7 90.2 47.2 90.2 47.8 90.2 48.5 90.2 49 90.2 49.6 90.2 50 90.2 50L85 50 84.9 50 79.6 50C79.6 50 79.6 49.6 79.6 49 79.6 48.4 79.6 47.7 79.6 47.2 79.7 46.7 80.1 46.3 80.7 46.1Z" fill="#2F2739"/><path d="M96.2 65.3 108.9 65.3 108.9 49.1C108.9 47.8 107.5 46.8 105.8 46.8L99.2 46.8C97.5 46.8 96.1 47.8 96.1 49.1L96.1 65.3Z" fill="#2F2739"/><path d="M78.5 65.3 91.2 65.3 91.2 49.1C91.2 47.8 89.8 46.8 88.1 46.8L81.5 46.8C79.8 46.8 78.4 47.8 78.4 49.1L78.4 65.3Z" fill="#2F2739"/><path d="M97.6 50.6C98.1 47.6 97.7 40.9 93.8 40.9L93.8 40.9 93.8 40.9C89.9 40.9 89.4 47.7 89.9 50.6 88.9 50.8 87.9 51.2 87.9 52.1 87.9 52.7 87.9 53.8 87.9 54.8 87.9 55 87.9 55.2 87.9 55.3 87.9 56 87.9 56.6 87.9 56.6L93.8 56.6 93.9 56.6 99.8 56.6C99.8 56.6 99.8 56.1 99.8 55.3 99.8 55.1 99.8 55 99.8 54.8 99.8 53.8 99.8 52.7 99.8 52.1 99.6 51.2 98.7 50.8 97.6 50.6Z" fill="#2F2739"/><path d="M80.6 50.8C80 50.6 79.3 50.5 78.7 50.4 78.7 50.4 78.6 50.4 78.6 50.4 78.6 50.4 78.6 50.4 78.6 50.4 78.6 50.4 78.5 50.4 78.5 50.4 78.5 50.4 78.5 50.4 78.5 50.4 78.5 50.4 78.5 50.4 78.4 50.4 78.4 50.4 78.4 50.4 78.4 50.4 78.4 50.4 78.4 50.4 78.3 50.3 78.3 50.3 78.3 50.3 78.3 50.3 78.3 50.3 78.3 50.3 78.2 50.2 78.2 50.2 78.2 50.2 78.2 50.2 78.2 50.2 78.2 50.1 78.1 50.1 78.1 50.1 78.1 50.1 78.1 50.1 78 50 78 49.9 78 49.9L78 49.9C77.9 49.6 77.8 49.3 77.8 49 77.8 49 77.8 49 77.8 49 78 48.8 78.1 48.5 78.3 48.2 78.6 47.5 78.6 47.3 78.6 47.3L78.6 47.3C78.6 47.2 78.6 47.2 78.7 47.1 78.7 47.1 78.7 47.1 78.8 47.1 79.5 46.8 79.6 45.3 79.4 45.2 79.4 45.2 79.3 45.2 79.3 45.2 79.3 45 79.4 44.8 79.4 44.6 79.6 44.6 79.7 44.4 79.7 44.2 79.7 44 79.5 43.9 79.4 43.8 79.4 43.8 79.4 43.8 79.4 43.8 79.6 43.7 79.8 43.5 79.8 43.3 79.8 43 79.6 42.8 79.4 42.8 79.5 42.7 79.5 42.6 79.5 42.5 79.5 42.2 79.3 42 79 42 79.1 41.9 79.1 41.8 79.1 41.7 79.1 41.4 78.9 41.2 78.6 41.2 78.5 41.2 78.4 41.2 78.4 41.2 78.4 41.2 78.4 41.2 78.4 41.1 78.4 40.8 78.2 40.6 77.9 40.6 77.7 40.6 77.5 40.7 77.5 40.9 77.5 40.9 77.5 40.9 77.5 40.8 77.5 40.5 77.3 40.3 77 40.3 76.7 40.3 76.5 40.5 76.5 40.7 76.5 40.5 76.2 40.3 76 40.3 75.7 40.3 75.5 40.5 75.5 40.8 75.5 40.8 75.5 40.8 75.5 40.9 75.4 40.7 75.3 40.6 75.1 40.6 74.8 40.6 74.6 40.8 74.6 41.1 74.6 41.1 74.6 41.2 74.6 41.2 74.5 41.2 74.5 41.2 74.4 41.2 74.1 41.2 73.9 41.4 73.9 41.7 73.9 41.8 73.9 41.9 74 42 74 42 74 42 74 42 73.7 42 73.5 42.2 73.5 42.5 73.5 42.6 73.5 42.7 73.6 42.8 73.6 42.8 73.6 42.8 73.6 42.8 73.4 42.9 73.2 43.1 73.2 43.3 73.2 43.5 73.3 43.7 73.6 43.8 73.6 43.8 73.6 43.8 73.6 43.8 73.4 43.8 73.3 44 73.3 44.2 73.3 44.4 73.4 44.5 73.6 44.6 73.6 44.6 73.6 44.6 73.6 44.7 73.6 44.9 73.6 45.1 73.7 45.3 73.7 45.3 73.6 45.3 73.6 45.3 73.4 45.4 73.5 46.9 74.2 47.2 74.2 47.2 74.2 47.2 74.3 47.2 74.3 47.3 74.3 47.3 74.4 47.4L74.4 47.4C74.4 47.4 74.4 47.6 74.8 48.3 75 48.6 75.1 48.9 75.3 49.1 75.3 49.1 75.3 49.1 75.3 49.1 75.3 49.4 75.2 49.7 75.1 50 75.1 50.1 75 50.2 75 50.2 75 50.2 75 50.2 75 50.2 75 50.2 75 50.3 74.9 50.3 74.9 50.3 74.9 50.3 74.9 50.3 74.9 50.3 74.9 50.3 74.8 50.4 74.8 50.4 74.8 50.4 74.8 50.4 74.8 50.4 74.8 50.4 74.7 50.5 74.7 50.5 74.7 50.5 74.7 50.5 74.7 50.5 74.7 50.5 74.6 50.5 74.6 50.5 74.6 50.5 74.6 50.5 74.6 50.5 74.5 50.5 74.5 50.5 74.5 50.5 74.5 50.5 74.5 50.5 74.5 50.5 74.4 50.5 74.4 50.5 73.8 50.6 73.1 50.7 72.5 50.9 71.7 51.1 71.2 51.5 71.1 52.2 71 53.4 71.1 56.7 71.1 56.7L76 56.7 76.1 56.7 76.1 56.7 82 56.7C82 56.7 82 53.4 82 52.2 81.9 51.5 81.3 51.1 80.6 50.8Z" fill="#2F2739"/><path d="M83.1 62 69 62 69 54.1C69 52.7 70.5 51.6 72.4 51.6L79.7 51.6C81.6 51.6 83.1 52.7 83.1 54.1L83.1 62Z" fill="#2F2739"/><path d="M100.8 62 86.8 62 86.8 54.1C86.8 52.7 88.3 51.6 90.2 51.6L97.5 51.6C99.4 51.6 100.9 52.7 100.9 54.1L100.9 62Z" fill="#2F2739"/><rect x="69" y="55.1" width="39.8" height="10.2" fill="#2F2739"/></g></g><g><path d="M57 12.1C57.1 12.1 57.3 12.2 57.4 12.2 57.4 12.2 57.4 12.3 57.5 12.4L58.6 13 73.7 20.4C74 20.5 74.1 20.9 73.9 21.1L73.9 21.1C73.8 21.4 73.4 21.5 73.2 21.3L59.6 14.6 59.6 14.6 59.6 14.6 57 13.2C56.7 13 56.5 12.8 56.5 12.4L56.5 12.1C56.7 12.1 56.9 12.1 57 12.1Z" fill="#9A9A9A"/><rect x="65.6" y="20.5" width="0.7" height="22.6" fill="#BCBCBC"/><path d="M66.3 21.3C66.2 21.3 66.2 21.3 66.1 21.3L65.8 21.3C65.7 21.3 65.7 21.3 65.6 21.3L65.6 20.6 66.3 20.6 66.3 21.3Z" fill="#BCBCBC" opacity="0.85"/><rect x="60.8" y="43.3" width="5.2" height="0.6" fill="#9A9A9A" transform="matrix(0.9934 -0.1147 0.1147 0.9934 -4.5782 7.5549)"/><rect x="67.7" y="42.1" width="0.6" height="5.2" fill="#9A9A9A" transform="matrix(0.4249 -0.9052 0.9052 0.4249 -1.3342 87.1949)"/><path d="M66 43.2 66 43.2C66 43.1 66 43.1 65.9 43L69.3 42.3 69.4 42.8 66 43.6C66 43.5 66 43.3 66 43.2Z" fill="#9A9A9A"/><path d="M65.1 43.3C65.1 43.8 65.5 44.2 66 44.2 66.5 44.2 66.9 43.8 66.9 43.3 66.9 42.8 66.5 42.4 66 42.4 65.5 42.4 65.1 42.8 65.1 43.3Z" fill="#362F40"/><path d="M61 43.4 61.2 44.4C61.2 44.4 60.1 44.7 60 44.2 59.8 43.7 60.1 43.5 61 43.4Z" fill="#362F40"/><path d="M70.3 45.2 69.8 46.1C69.8 46.1 70.8 46.8 71 46.3 71.3 45.9 71.1 45.6 70.3 45.2Z" fill="#362F40"/><path d="M69.1 42.2 69.3 43.1C69.3 43.1 70.4 43 70.3 42.5 70.2 42.1 69.8 42.1 69.1 42.2Z" fill="#362F40"/><path d="M65.9 20.9 66.2 20.9C66.5 20.9 66.7 20.7 66.7 20.4L66.7 19 65.4 19 65.4 20.4C65.3 20.7 65.6 20.9 65.9 20.9Z" fill="#BCBCBC"/><path d="M68.1 19 64.8 17.3 65.3 16.2 68.6 17.9Z" fill="#362F40"/><path d="M65.2 18.4 65.2 18.4 65.2 18.4C65.2 18.4 65.2 18.4 65.2 18.4L65.7 17.4 67.4 18.1 66.9 19.2C66.9 19.2 66.9 19.2 66.9 19.2L66.9 19.2 66.9 19.2C66.8 19.5 66.4 19.7 66.1 19.7 65.6 19.7 65.2 19.3 65.2 18.8 65.1 18.6 65.2 18.5 65.2 18.4Z" fill="#362F40"/><path d="M65.8 18.8C65.8 19 65.9 19.1 66.1 19.1 66.3 19.1 66.4 19 66.4 18.8 66.4 18.6 66.3 18.5 66.1 18.5 65.9 18.5 65.8 18.6 65.8 18.8Z" fill="#B8B8B8"/><path d="M56.3 12.2 56.3 12.2 56.3 12.2C56.3 12.2 56.3 12.2 56.3 12.2L56.6 11.5 57.8 12 57.5 12.7 57.5 12.7 57.5 12.7 57.5 12.7C57.4 12.9 57.2 13.1 56.9 13.1 56.5 13.1 56.3 12.8 56.3 12.5 56.3 12.4 56.3 12.3 56.3 12.2Z" fill="#362F40"/><path d="M56.7 12.5C56.7 12.6 56.8 12.7 56.9 12.7 57 12.7 57.1 12.6 57.1 12.5 57.1 12.4 57 12.3 56.9 12.3 56.8 12.3 56.7 12.4 56.7 12.5Z" fill="#B8B8B8"/><g><path d="M53.7 10.5C52.7 10.4 52.1 9.6 52.1 9.6L52.5 8.7 52.9 7.8C52.9 7.8 53.8 7.7 54.6 8.3 55.1 8.7 56.3 9.5 57.6 10.2 58.5 10.7 60.5 11.4 60.5 11.4 60.5 11.4 60.6 11.7 60.4 12.2 60.2 12.7 59.9 12.8 59.9 12.8 59.9 12.8 58 11.7 57 11.4 55.7 11 54.3 10.6 53.7 10.5Z" fill="#362F40"/><path d="M55.7 9.2 55 10.8C54.4 10.7 54 10.6 53.7 10.5 52.7 10.4 52.1 9.6 52.1 9.6L52.9 7.9C52.9 7.9 53.8 7.8 54.6 8.4 54.8 8.6 55.2 8.8 55.7 9.2Z" fill="#BCBCBC"/><path d="M52.1 9.4C52.1 8.9 52.4 8.4 52.7 8L52.8 7.8 52.8 8C52.8 8.5 52.5 9 52.2 9.4L52.1 9.6 52.1 9.4Z" fill="#DCDCDC"/><path d="M53.7 9.8C53.9 9.4 54.1 9 54.2 8.6 54.2 8.5 54.3 8.3 54.3 8.2 54.4 8.3 54.5 8.3 54.6 8.4 54.8 8.6 55.2 8.9 55.7 9.2L55 10.8C54.4 10.7 54 10.6 53.7 10.5 53.6 10.5 53.4 10.4 53.3 10.4 53.5 10.3 53.6 10 53.7 9.8Z" fill="#9A9A9A"/><g><path d="M53.1 10.4C53.2 10.3 53.3 10.1 53.4 9.9 53.7 9.5 53.9 9 54 8.6 54 8.4 54.1 8.2 54.1 8.1 54.2 8.2 54.4 8.3 54.5 8.4 54.5 8.6 54.3 9.1 54.1 9.6 53.9 10 53.6 10.5 53.5 10.7 53.4 10.5 53.2 10.4 53.1 10.4Z" fill="#20182B"/><path d="M55.4 9.4C55.4 9.3 55.5 9.1 55.5 9 55.6 9.1 55.7 9.1 55.8 9.2 55.8 9.4 55.7 9.7 55.5 10.1 55.4 10.4 55.2 10.7 55.1 10.9 55 10.9 54.8 10.8 54.7 10.8 54.8 10.7 54.9 10.6 54.9 10.5 55.1 10.1 55.3 9.8 55.4 9.4Z" fill="#9D939C"/><path d="M55.4 9.4C55.4 9.3 55.5 9.1 55.5 9 55.6 9.1 55.7 9.1 55.8 9.2 55.8 9.4 55.7 9.7 55.5 10.1 55.4 10.4 55.2 10.7 55.1 10.9 55 10.9 54.8 10.8 54.7 10.8 54.8 10.7 54.9 10.6 54.9 10.5 55.1 10.1 55.3 9.8 55.4 9.4Z"/></g><path d="M53.1 8 53.3 8 53.3 8.3 53 8.2Z" fill="#20182B"/><path d="M53 8.4 53.3 8.4 53.2 8.7 52.9 8.6Z" fill="#20182B"/><path d="M52.3 9.7 52.5 9.8 52.7 9.6 52.5 9.5Z" fill="#20182B"/><path d="M52.6 9.3 52.8 9.5 52.9 9.3 52.7 9.1Z" fill="#20182B"/><rect x="52.8" y="8.8" width="0.3" height="0.3" fill="#20182B" transform="matrix(0.4035 -0.915 0.915 0.4035 23.4107 53.7859)"/><path d="M53.6 8.1 53.9 8.1 53.8 8.4 53.5 8.4Z" fill="#20182B"/><path d="M53.5 8.5 53.8 8.6 53.7 8.9 53.4 8.8Z" fill="#20182B"/><path d="M52.8 9.9 53 10.2 53.2 9.9 52.9 9.7Z" fill="#20182B"/><path d="M53 9.6 53.3 9.8 53.4 9.5 53.2 9.4Z" fill="#20182B"/><path d="M54.1 10 54.3 10.2 54.4 9.9 54.2 9.8Z" fill="#20182B"/><path d="M53.9 10.4 54.1 10.5 54.2 10.3 54 10.2Z" fill="#20182B"/><rect x="53.3" y="9" width="0.3" height="0.3" fill="#20182B" transform="matrix(0.4047 -0.9145 0.9145 0.4047 23.4494 54.3254)"/><rect x="54.3" y="9.4" width="0.3" height="0.3" fill="#20182B" transform="matrix(0.4047 -0.9145 0.9145 0.4047 23.6395 55.4935)"/><path d="M54.5 10.2 54.7 10.3 54.9 10.1 54.6 10Z" fill="#20182B"/><path d="M54.4 10.5 54.5 10.6 54.6 10.4 54.5 10.3Z" fill="#20182B"/><path d="M54.5 9 54.8 9.1 54.7 9.4 54.4 9.3Z" fill="#20182B"/><path d="M54.6 8.7 54.9 8.7 54.8 9 54.6 8.9Z" fill="#20182B"/><path d="M54.9 9.3 55.2 9.3 55.1 9.6 54.9 9.5Z" fill="#20182B"/><path d="M55.1 8.9 55.3 9 55.2 9.2 55 9.1Z" fill="#20182B"/><rect x="54.7" y="9.6" width="0.3" height="0.3" fill="#20182B" transform="matrix(0.401 -0.9161 0.9161 0.401 23.9055 56.1252)"/></g><path d="M57.9 12.3 56.3 11.5 57.2 9.8 58.7 10.5Z" fill="#BCBCBC"/></g></g></svg>